<?xml version="1.0" encoding="UTF-8"?>
<svg width="296.71" height="141" version="1.1" viewBox="0 0 296.71 141" xmlns="http://www.w3.org/2000/svg" xmlns:cc="http://creativecommons.org/ns#" xmlns:dc="http://purl.org/dc/elements/1.1/" xmlns:rdf="http://www.w3.org/1999/02/22-rdf-syntax-ns#">
 <metadata>
  <rdf:RDF>
   <cc:Work rdf:about="">
    <dc:format>image/svg+xml</dc:format>
    <dc:type rdf:resource="http://purl.org/dc/dcmitype/StillImage"/>
    <dc:title>msprime logo</dc:title>
   </cc:Work>
  </rdf:RDF>
 </metadata>
 <defs>
  <style>.cls-1 {
        fill: #12e3a8;
      }

      .cls-2 {
        fill: #045167;
      }</style>
 </defs>
 <title>msprime logo</title>
 <g transform="matrix(.7335 0 0 .71322 6.5756 63.79)">
  <path d="m45.538 5.1087c-0.55878 0.17779-4.0384 2.0573-7.7466 4.1908-3.7082 2.1335-8.3308 4.8004-10.286 5.9179-1.9557 1.1429-3.9114 2.2859-4.3432 2.5653-2.2605 1.4731-2.7685 4.521-1.0921 6.6291 0.45717 0.58417 3.5304 2.5145 7.4672 4.7242 0.83816 0.48258 2.3367 1.3207 3.3018 1.9049 7.772 4.5972 9.8039 5.7147 10.337 5.7147 1.3715 0 2.0065-1.8795 0.91436-2.6669-0.66037-0.48258-17.119-10.083-18.541-10.82-1.0921-0.55877-1.5747-1.2953-1.3715-2.0827 0.12707-0.55877 0.35558-0.71116 3.4542-2.4637 0.91436-0.50797 5.2067-2.9716 9.5245-5.4607 9.7023-5.5877 9.4483-5.4607 11.125-5.4607 2.2097 0 2.2097 0 10.845 5.0797 7.9498 4.6734 10.312 6.0195 10.871 6.1465 1.1175 0.30478 2.2605-1.2699 1.6255-2.2605-0.10166-0.1524-1.4477-1.0414-2.9716-1.9303-1.5493-0.88896-4.3432-2.4891-6.2227-3.5812-4.013-2.3367-6.6798-3.9114-7.7466-4.5464-2.4129-1.4731-3.5304-1.8287-5.8417-1.8795-1.3715-0.050806-2.6923 0.076198-3.3018 0.27939z" fill="#12e3a8"/>
  <path d="m46.758 10.214c-0.91436 0.38098-1.3462 1.0413-1.3462 2.0319 0 1.6763 1.3207 2.5145 3.7082 2.3621 1.3715-0.0762 1.7271-0.22859 2.3875-0.83816 1.2191-1.1683 0.88896-2.6923-0.76196-3.5558-0.91436-0.48257-2.9209-0.48257-3.9876 0z" fill="#045167"/>
  <path d="m72.156 23.294c-0.58417 0.25399-2.2605 1.1683-3.6828 2.0065-1.4477 0.81276-3.2002 1.8287-3.9114 2.2351-7.6704 4.2924-13.868 8.0006-14.706 8.8388-0.58417 0.55877-1.3715 1.7017-1.8033 2.5399l-0.73657 1.5239-0.05083 12.572c-0.05083 6.9084-0.12707 12.826-0.20309 13.131-0.17768 0.78736-1.1175 1.6001-1.8287 1.6001-0.33016 0-2.8446-1.2953-5.6131-2.8955-2.7431-1.5747-7.5688-4.3686-10.718-6.1719-6.2989-3.632-7.0862-4.3178-7.5942-6.6799-0.17768-0.81276-0.27938-5.2575-0.27938-12.166 0-10.21-0.02541-10.896-0.45719-11.277-0.68576-0.63497-1.7525-0.53337-2.2097 0.17779-0.35558 0.53337-0.40638 2.0319-0.33018 12.369l0.07624 11.785 0.66037 1.3969c0.81274 1.7017 1.7271 2.8447 3.124 3.7844 0.55878 0.40638 4.7495 2.8701 9.2959 5.4861 4.5464 2.6161 8.9911 5.1813 9.9055 5.7147 2.1589 1.2953 2.8193 1.5239 4.3178 1.5239 1.6255 0 3.4542-1.1937 4.267-2.7939 0.55878-1.1175 0.55878-1.1683 0.55878-13.588 0-14.299-0.02541-14.122 1.9811-15.9 0.96514-0.83816 11.404-7.01 20.065-11.836 1.7271-0.96515 2.4383-0.99055 3.3526-0.0762 0.48258 0.48258 0.50797 0.88895 0.50797 13.004 0 11.658-0.05083 12.598-0.48258 13.538-0.81274 1.7525-1.4223 2.1843-9.1689 6.6545-1.4731 0.83816-4.0384 2.3367-5.7147 3.3018-1.6763 0.99055-3.8098 2.2097-4.775 2.7177-0.93975 0.53337-1.8541 1.1937-2.0573 1.4731-0.63496 0.91436 0.10166 2.2097 1.2953 2.2351 0.30477 0 3.4288-1.6763 6.9846-3.7082 3.5304-2.0319 7.9752-4.5718 9.8547-5.6385 1.8795-1.0667 3.886-2.4383 4.4956-3.0224 1.3207-1.2953 2.2351-3.0732 2.5907-5.0289 0.38097-2.1081 0.38097-23.9-0.02541-25.45-0.35558-1.4985-1.9811-3.2256-3.378-3.6066-1.4477-0.40638-2.3875-0.33018-3.6066 0.22859z" fill="#12e3a8"/>
  <g fill="#045167">
   <path d="m47.342 27.358c-1.2191 0.38098-1.9303 1.2445-1.9303 2.3113 0 2.3875 4.1654 3.4034 6.0957 1.4731 2.1589-2.1589-0.73657-4.8004-4.1654-3.7844z"/>
   <path d="m24.585 31.117c-0.91436 0.91435-0.96516 1.7271-0.22859 3.2764 1.0414 2.1335 3.5558 3.0732 4.7496 1.7779 1.5239-1.6255-0.33018-5.2829-2.8447-5.6893-0.76196-0.12698-1.0159-0.02539-1.6763 0.63497z"/>
   <path d="m39.417 39.88c-1.4477 1.2445-0.48256 4.267 1.7271 5.4099 0.38097 0.20318 0.99055 0.35558 1.3461 0.35558 0.83816 0 2.1589-1.2699 2.1589-2.0827-0.02541-1.0921-0.96514-2.6923-2.0573-3.4796-1.2699-0.93975-2.2351-0.99055-3.1748-0.20318z"/>
   <path d="m24.559 48.668c-1.0921 1.1175-0.91436 2.6923 0.48256 4.1654 1.4477 1.5493 2.9717 1.8541 3.9876 0.81276 1.2191-1.1937 0.60956-3.6574-1.2191-4.9781-1.3207-0.96515-2.2859-0.96515-3.251 0z"/>
   <path d="m39.951 56.821c-1.2191 0.48257-1.6001 1.8541-0.93977 3.378 1.2191 2.7431 4.2416 3.6828 5.2829 1.6763 0.73657-1.4731-0.43178-4.013-2.2605-4.8766-0.96514-0.48258-1.3207-0.50798-2.0827-0.17779z"/>
  </g>
 </g>
 <text x="13.451859" y="96.192139" fill="#000000" font-family="sans-serif" font-size="40px" letter-spacing="0px" word-spacing="0px" style="line-height:1.25" xml:space="preserve"/>
 <g transform="matrix(.5868 0 0 .57057 207.92 22.946)">
  <path d="m-265.63 124.45c1.9445-1.2066 3.918-1.2044 5.5014-0.0122 4.0602 3.0571 0.49172 11.172-4.9285 11.245-5.1363 0.10906-5.569-8.1102-0.57294-11.233z" fill="#045167"/>
 </g>
 <g transform="matrix(1.1 0 0 1.1 -164.4 -134.57)" fill="#045167" stroke-width="1.8224" style="font-feature-settings:normal;font-variant-caps:normal;font-variant-ligatures:normal;font-variant-numeric:normal" aria-label="ms">
  <path d="m175.33 165.77v-1.728c0-0.864-0.648-1.368-1.512-1.368h-4.608v-18.864c0-5.544 2.808-8.496 7.992-8.496 5.256 0 7.992 3.168 7.992 8.496v21.024c0 1.656 0.72 2.304 2.232 2.304h8.568c0.864 0 1.44-0.576 1.44-1.368v-1.728c0-0.864-0.576-1.368-1.44-1.368h-4.824v-18.864c0-5.544 2.88-8.496 7.992-8.496 5.256 0 7.992 3.168 7.992 8.496v21.024c0 1.656 0.792 2.304 2.232 2.304h8.568c0.864 0 1.512-0.576 1.512-1.368v-1.728c0-0.864-0.648-1.368-1.512-1.368h-4.824v-18.864c0-8.496-5.256-13.248-13.176-13.248-5.04 0-8.856 2.16-10.8 6.264-2.016-4.104-6.048-6.264-11.232-6.264-5.04 0-6.5128 0.63434-8.8108 3.8863l-0.0103-1.8085c-5e-3 -0.93936-0.68664-1.4985-1.447-1.5023l-9.1289-0.0466c-0.85343-4e-3 -1.3402 0.52891-1.3363 1.2244l0.017 3.0868c3e-3 0.5209 0.52472 1.0479 1.252 1.0627l4.7043 0.0957v26.114h-4.536c-0.864 0-1.512 0.504-1.512 1.368v1.728c0 0.792 0.648 1.368 1.512 1.368h15.192c0.864 0 1.512-0.576 1.512-1.368z" style="font-feature-settings:normal;font-variant-caps:normal;font-variant-ligatures:normal;font-variant-numeric:normal"/>
  <path d="m252.08 156.27c0-5.616-2.808-8.352-9.432-9.216l-7.92-1.08c-3.096-0.432-5.04-1.224-5.04-4.536v-0.72c0-3.456 2.304-5.616 8.208-5.616 5.472 0 7.92 1.728 7.92 5.184v0.72c0 0.648 0.36 1.08 1.08 1.08h3.312c0.72 0 1.152-0.432 1.152-1.152v-0.72c0-5.904-4.248-9.648-13.464-9.648-9.576 0-13.824 4.32-13.824 10.8v0.648c0 5.688 2.88 8.352 9.504 9.288l7.92 1.008c3.024 0.432 4.968 1.296 4.968 4.536v0.864c0 3.528-2.664 5.688-8.496 5.688s-8.424-1.728-8.424-5.256v-1.08c0-0.648-0.36-1.008-1.008-1.008h-3.384c-0.72 0-1.152 0.432-1.152 1.08v1.08c0 5.976 4.392 9.72 13.968 9.72 9.72 0 14.112-4.32 14.112-10.872z" style="font-feature-settings:normal;font-variant-caps:normal;font-variant-ligatures:normal;font-variant-numeric:normal"/>
 </g>
 <g fill="none" stroke="#12e3a8" stroke-linecap="round" stroke-linejoin="round" stroke-width="5.4">
  <path d="m134.39 60.982-0.42999-18.92 30.959 0.42999v20.21" style="paint-order:normal"/>
  <path d="m248.33 81.042-0.18666-52.739-97.636 0.21499 0.215 13.115" style="paint-order:normal"/>
  <path d="m195.87 27.873 0.13-14.993" style="paint-order:normal"/>
  <circle cx="164.94" cy="64.083" r="2.7693" style="paint-order:normal"/>
 </g>
 <circle class="cls-2" cx="164.62" cy="64.132" r="3.0561" fill="#045167"/>
 <g transform="matrix(1.1 0 0 1.1 -164.42 -130.88)" fill="#045167" style="font-feature-settings:normal;font-variant-caps:normal;font-variant-ligatures:normal;font-variant-numeric:normal" aria-label="prime">
  <g stroke-width="1.8134">
   <path d="m238.33 236.71v-1.728c0-0.864-0.648-1.368-1.44-1.368h-4.968v-13.752c2.16 2.808 5.544 4.32 9.864 4.32 8.208 0 13.968-4.896 13.968-13.824v-9.432c0-8.928-5.832-13.824-14.328-13.824-5.472 0-8.299 1.1776-10.394 4.1486l-0.0189-1.7078c-0.0103-0.92918-0.81201-1.6776-1.4026-1.672l-8.2107 0.0786c-0.67872 6e-3 -1.0347 0.52949-1.0307 1.2817l0.0127 2.3722c4e-3 0.79139 0.3006 1.3612 1.4244 1.3605l4.0675-3e-3v40.653h-4.536c-0.864 0-1.512 0.504-1.512 1.368v1.728c0 0.792 0.648 1.368 1.512 1.368h15.552c0.792 0 1.44-0.576 1.44-1.368zm2.448-17.064c-5.76 0-8.856-3.024-8.856-8.856v-10.224c0-5.76 3.096-8.784 8.856-8.784 5.832 0 8.928 3.024 8.928 8.784v10.224c0 5.832-3.096 8.856-8.928 8.856z" style="font-feature-settings:normal;font-variant-caps:normal;font-variant-ligatures:normal;font-variant-numeric:normal"/>
   <path d="m280.52 222.31v-1.728c0-0.864-0.648-1.368-1.512-1.368h-4.968v-17.352c0-5.904 3.24-9.216 8.496-9.216h1.728c1.656 0 2.808-0.864 2.808-2.448v-0.36c0-1.728-1.08-2.664-3.168-2.664h-1.44c-4.68 0-8.208 2.376-10.008 6.696l0.0325-3.9564c9e-3 -1.0341-0.44737-1.8094-1.2441-1.8086l-7.7134 8e-3c-0.86736 8.9e-4 -1.2463 0.35619-1.2447 0.97839l7e-3 2.8109c2e-3 0.72469 0.76344 1.0789 1.4414 1.1293l4.0439 0.0498 0.21302 26.133h-4.536c-0.864 0-1.512 0.504-1.512 1.368v1.728c0 0.792 0.648 1.368 1.512 1.368h15.552c0.864 0 1.512-0.576 1.512-1.368z" style="font-feature-settings:normal;font-variant-caps:normal;font-variant-ligatures:normal;font-variant-numeric:normal"/>
   <path d="m307.3 223.67c0.864 0 1.512-0.576 1.512-1.44v-1.728c0-0.792-0.648-1.368-1.512-1.368h-4.752v-29.016c0-1.584-0.792-2.232-2.304-2.232h-8.424c-0.864 0-1.512 0.576-1.512 1.368v1.728c0 0.792 0.648 1.368 1.512 1.368h4.68v26.784h-4.68c-0.864 0-1.512 0.576-1.512 1.368v1.728c0 0.864 0.648 1.44 1.512 1.44z" style="font-feature-settings:normal;font-variant-caps:normal;font-variant-ligatures:normal;font-variant-numeric:normal"/>
   <path d="m409.69 214.17v-0.504c0-0.576-0.36-0.936-0.936-0.936h-3.672c-0.72 0-1.008 0.288-1.008 0.936v0.432c0 3.672-2.232 5.904-8.28 5.904-6.12 0-9.288-2.592-9.288-8.424v-3.816h21.384c1.512 0 2.232-0.72 2.232-2.304v-5.112c0-8.712-5.4-13.248-14.76-13.248-9.144 0-14.832 4.68-14.832 13.536v10.512c0 8.64 5.544 13.32 15.264 13.32 9.432 0 13.896-3.888 13.896-10.296zm-23.184-14.256c0-5.616 3.168-8.424 8.856-8.424 5.904 0 9 2.664 9 8.424v3.528h-17.856z" style="font-feature-settings:normal;font-variant-caps:normal;font-variant-ligatures:normal;font-variant-numeric:normal"/>
  </g>
  <path d="m331.59 222.08v-1.728c0-0.864-0.648-1.368-1.512-1.368h-4.608v-18.864c0-5.544 2.808-8.496 7.992-8.496 5.256 0 7.992 3.168 7.992 8.496v21.024c0 1.656 0.72 2.304 2.232 2.304h8.568c0.864 0 1.44-0.576 1.44-1.368v-1.728c0-0.864-0.576-1.368-1.44-1.368h-4.824v-18.864c0-5.544 2.88-8.496 7.992-8.496 5.256 0 7.992 3.168 7.992 8.496v21.024c0 1.656 0.792 2.304 2.232 2.304h8.568c0.864 0 1.512-0.576 1.512-1.368v-1.728c0-0.864-0.648-1.368-1.512-1.368h-4.824v-18.864c0-8.496-5.256-13.248-13.176-13.248-5.04 0-8.856 2.16-10.8 6.264-2.016-4.104-6.048-6.264-11.232-6.264-5.04 0-6.5128 0.63434-8.8108 3.8863l-0.0103-1.8085c-5e-3 -0.93936-0.68664-1.4985-1.447-1.5023l-9.1289-0.0466c-0.85343-4e-3 -1.3402 0.52891-1.3363 1.2244l0.017 3.0868c3e-3 0.5209 0.52472 1.0479 1.252 1.0627l4.7043 0.0957v26.114h-4.536c-0.864 0-1.512 0.504-1.512 1.368v1.728c0 0.792 0.648 1.368 1.512 1.368h15.192c0.864 0 1.512-0.576 1.512-1.368z" fill="#045167" style="font-feature-settings:normal;font-variant-caps:normal;font-variant-ligatures:normal;font-variant-numeric:normal"/>
 </g>
</svg>
