<?xml version="1.0" encoding="UTF-8" standalone="no"?>
<svg
   xmlns:dc="http://purl.org/dc/elements/1.1/"
   xmlns:cc="http://creativecommons.org/ns#"
   xmlns:rdf="http://www.w3.org/1999/02/22-rdf-syntax-ns#"
   xmlns:svg="http://www.w3.org/2000/svg"
   xmlns="http://www.w3.org/2000/svg"
   viewBox="0 0 1437.3333 688.91998"
   height="688.91998"
   width="1437.3333"
   xml:space="preserve"
   id="svg2"
   version="1.1"><metadata
     id="metadata8"><rdf:RDF><cc:Work
         rdf:about=""><dc:format>image/svg+xml</dc:format><dc:type
           rdf:resource="http://purl.org/dc/dcmitype/StillImage" /></cc:Work></rdf:RDF></metadata><defs
     id="defs6" /><g
     transform="matrix(1.3333333,0,0,-1.3333333,0,688.92)"
     id="g10"><g
       transform="scale(0.1)"
       id="g12"><path
         id="path14"
         style="fill:#5dc694;fill-opacity:1;fill-rule:nonzero;stroke:none"
         d="M 9318.42,3219.43 H 4163.11 v 326.25 h 5155.31 v -326.25" /><path
         id="path16"
         style="fill:#5dc694;fill-opacity:1;fill-rule:nonzero;stroke:none"
         d="M 6998.26,2560.53 H 6672 v 658.9 h 326.26 v -658.9" /><path
         id="path18"
         style="fill:#204e66;fill-opacity:1;fill-rule:nonzero;stroke:none"
         d="m 2012.62,804.141 h 130.96 v -229.75 h -588.17 v 229.75 h 130.96 v 429.619 c 0,151.63 -32.16,294.09 -202.17,294.09 -229.75,0 -248.14,-261.91 -248.14,-390.57 V 804.141 h 130.96 V 574.391 H 778.855 v 229.75 h 130.954 v 429.619 c 0,153.93 -34.45,294.09 -202.168,294.09 -232.047,0 -250.43,-266.52 -250.43,-390.57 V 804.141 H 588.164 V 574.391 H 0 v 229.75 H 130.953 V 1539.34 H 0 v 229.75 h 457.211 v -172.33 h -18.383 c 57.442,108.01 170.012,209.08 367.61,209.08 183.785,0 310.152,-87.3 374.482,-245.82 59.73,119.46 181.51,245.82 402.08,245.82 284.88,0 429.62,-209.08 429.62,-567.49 V 804.141" /><path
         id="path20"
         style="fill:#204e66;fill-opacity:1;fill-rule:nonzero;stroke:none"
         d="m 2938.54,1284.32 c 303.28,-89.62 429.65,-183.8 429.65,-399.761 0,-222.868 -172.31,-346.938 -434.24,-346.938 -179.2,0 -291.79,48.238 -367.59,126.359 l -4.59,-89.589 h -229.75 v 415.851 h 252.72 c 50.54,-126.363 151.63,-209.07 303.26,-209.07 85.01,0 153.93,34.437 153.93,105.68 0,71.218 -66.62,101.07 -114.87,114.868 l -179.21,48.24 c -188.4,50.56 -422.74,112.59 -422.74,404.38 0,227.43 163.13,349.2 404.38,349.2 119.45,0 245.82,-34.45 340.02,-119.45 l 4.59,85 h 229.76 v -402.08 h -252.73 c -39.06,130.98 -137.86,195.31 -245.84,195.31 -85.01,0 -153.92,-36.77 -153.92,-112.6 0,-64.33 41.35,-91.89 124.06,-117.16 l 163.11,-48.24" /><path
         id="path22"
         style="fill:#204e66;fill-opacity:1;fill-rule:nonzero;stroke:none"
         d="m 4981.02,1194.7 c 0,232.05 -75.8,353.82 -227.43,353.82 -160.84,0 -264.23,-121.77 -264.23,-363 V 838.59 c 59.74,-32.16 117.18,-43.649 209.08,-43.649 248.13,0 282.58,197.598 282.58,399.759 z m 349.23,0 c 0,-356.11 -192.99,-654.778 -631.81,-654.778 -66.63,0 -140.16,9.199 -209.08,27.558 V 229.75 h 130.96 V 0 h -588.17 v 229.75 h 130.96 v 1309.59 h -130.96 v 229.75 h 457.21 v -172.33 h -41.35 c 68.92,130.98 186.1,209.08 374.49,209.08 314.76,0 507.75,-248.11 507.75,-611.14" /><path
         id="path24"
         style="fill:#204e66;fill-opacity:1;fill-rule:nonzero;stroke:none"
         d="m 6387.12,1792.07 v -303.29 c -18.38,2.3 -55.15,6.91 -91.91,6.91 -204.47,0 -323.94,-50.56 -323.94,-379.09 V 804.141 h 186.1 v -229.75 h -643.31 v 229.75 h 130.95 v 732.909 h -130.95 v 229.75 h 457.21 v -193.01 h -32.18 c 59.74,156.24 165.42,232.05 333.14,232.05 50.56,0 91.92,-6.89 114.89,-13.77" /><path
         id="path26"
         style="fill:#204e66;fill-opacity:1;fill-rule:nonzero;stroke:none"
         d="m 6612.28,2145.89 c 0,105.68 73.51,186.08 195.28,186.08 121.78,0 195.29,-80.4 195.29,-186.08 0,-105.69 -73.51,-186.1 -195.29,-186.1 -121.77,0 -195.28,80.41 -195.28,186.1 z M 6541.05,574.391 v 229.75 H 6672 v 735.199 h -130.95 v 229.75 h 457.21 V 804.141 h 130.95 v -229.75 h -588.16" /><path
         id="path28"
         style="fill:#204e66;fill-opacity:1;fill-rule:nonzero;stroke:none"
         d="m 9321.03,804.141 h 130.95 v -229.75 h -588.16 v 229.75 h 130.95 v 429.619 c 0,151.63 -32.15,294.09 -202.17,294.09 -229.75,0 -248.13,-261.91 -248.13,-390.57 V 804.141 h 130.95 v -229.75 h -588.16 v 229.75 h 130.95 v 429.619 c 0,153.93 -34.45,294.09 -202.17,294.09 -232.04,0 -250.43,-266.52 -250.43,-390.57 V 804.141 h 130.96 V 574.391 H 7308.4 v 229.75 h 130.96 V 1539.34 H 7308.4 v 229.75 h 457.21 v -172.33 h -18.38 c 57.44,108.01 170.01,209.08 367.61,209.08 183.79,0 310.15,-87.3 374.48,-245.82 59.74,119.46 181.51,245.82 402.08,245.82 284.88,0 429.63,-209.08 429.63,-567.49 V 804.141" /><path
         id="path30"
         style="fill:#204e66;fill-opacity:1;fill-rule:nonzero;stroke:none"
         d="m 9962.08,1334.86 h 521.52 c -32.2,174.6 -121.7,248.13 -257.3,248.13 -153.9,0 -234.36,-82.71 -264.22,-248.13 z m -9.2,-211.37 c 9.2,-229.752 101.12,-335.439 317.02,-335.439 128.7,0 266.6,50.539 337.8,112.57 l 133.2,-197.582 c -91.9,-89.59 -278,-163.117 -471,-163.117 -450.27,0 -652.45,261.918 -652.45,634.098 0,351.53 181.51,631.82 604.25,631.82 381.4,0 558.3,-289.47 558.3,-611.14 0,-27.56 -2.3,-55.12 -4.6,-71.21 h -822.52" /><path
         id="path32"
         style="fill:#5dc694;fill-opacity:1;fill-rule:nonzero;stroke:none"
         d="m 4489.36,1998.91 h -326.25 v 326.26 h 326.25 v -326.26" /><path
         id="path34"
         style="fill:#5dc694;fill-opacity:1;fill-rule:nonzero;stroke:none"
         d="m 4489.36,1998.91 h -326.25 v 1546.77 h 326.25 V 1998.91" /><path
         id="path36"
         style="fill:#5dc694;fill-opacity:1;fill-rule:nonzero;stroke:none"
         d="m 9318.42,2035.59 h -326.26 v 326.26 h 326.26 v -326.26" /><path
         id="path38"
         style="fill:#5dc694;fill-opacity:1;fill-rule:nonzero;stroke:none"
         d="m 5743.81,3535.62 h -326.26 v 326.25 h 326.26 v -326.25" /><path
         id="path40"
         style="fill:#5dc694;fill-opacity:1;fill-rule:nonzero;stroke:none"
         d="m 5743.81,3861.87 h -326.26 v 326.26 h 326.26 v -326.26" /><path
         id="path42"
         style="fill:#5dc694;fill-opacity:1;fill-rule:nonzero;stroke:none"
         d="m 2934.57,4514.39 h -326.26 v 326.25 h 326.26 v -326.25" /><path
         id="path44"
         style="fill:#5dc694;fill-opacity:1;fill-rule:nonzero;stroke:none"
         d="M 457.211,1998.91 H 130.953 V 4514.39 H 457.211 V 1998.91" /><path
         id="path46"
         style="fill:#5dc694;fill-opacity:1;fill-rule:nonzero;stroke:none"
         d="m 2934.57,4840.64 h -326.26 v 326.26 h 326.26 v -326.26" /><path
         id="path48"
         style="fill:#5dc694;fill-opacity:1;fill-rule:nonzero;stroke:none"
         d="m 4861.64,4188.13 h -326.26 v 326.26 h 326.26 v -326.26" /><path
         id="path50"
         style="fill:#5dc694;fill-opacity:1;fill-rule:nonzero;stroke:none"
         d="M 5743.81,4188.13 H 130.953 v 326.26 H 5743.81 v -326.26" /><path
         id="path52"
         style="fill:#5dc694;fill-opacity:1;fill-rule:nonzero;stroke:none"
         d="m 9318.42,2035.59 h -326.26 v 1510.09 h 326.26 V 2035.59" /></g></g></svg>