<?xml version="1.0" encoding="utf-8" standalone="no"?>
<!DOCTYPE svg PUBLIC "-//W3C//DTD SVG 1.1//EN"
  "http://www.w3.org/Graphics/SVG/1.1/DTD/svg11.dtd">
<!-- Created with matplotlib (https://matplotlib.org/) -->
<svg height="345.6pt" version="1.1" viewBox="0 0 460.8 345.6" width="460.8pt" xmlns="http://www.w3.org/2000/svg" xmlns:xlink="http://www.w3.org/1999/xlink">
 <defs>
  <style type="text/css">
*{stroke-linecap:butt;stroke-linejoin:round;}
  </style>
 </defs>
 <g id="figure_1">
  <g id="patch_1">
   <path d="M 0 345.6 
L 460.8 345.6 
L 460.8 0 
L 0 0 
z
" style="fill:#ffffff;"/>
  </g>
  <g id="axes_1">
   <g id="patch_2">
    <path d="M 54.525 323.74 
L 450 323.74 
L 450 25.44 
L 54.525 25.44 
z
" style="fill:#ffffff;"/>
   </g>
   <g id="PolyCollection_1">
    <path clip-path="url(#p54be406cfc)" d="M 112.448106 172.045994 
L 72.501136 172.045994 
L 72.501136 179.523741 
L 72.501136 187.001488 
L 72.501136 194.479234 
L 72.501136 201.956981 
L 72.501136 209.434727 
L 72.501136 216.912474 
L 72.501136 224.390221 
L 72.501136 231.867967 
L 72.501136 239.345714 
L 72.501136 246.82346 
L 72.501136 254.301207 
L 72.501136 261.778954 
L 72.501136 269.2567 
L 72.501136 276.734447 
L 72.501136 284.212193 
L 72.501136 291.68994 
L 72.501136 299.167687 
L 72.501136 306.645433 
L 72.501136 314.12318 
L 72.501136 321.600926 
L 112.448106 321.600926 
L 112.448106 321.600926 
L 112.448106 314.12318 
L 112.448106 306.645433 
L 112.448106 299.167687 
L 112.448106 291.68994 
L 112.448106 284.212193 
L 112.448106 276.734447 
L 112.448106 269.2567 
L 112.448106 261.778954 
L 112.448106 254.301207 
L 112.448106 246.82346 
L 112.448106 239.345714 
L 112.448106 231.867967 
L 112.448106 224.390221 
L 112.448106 216.912474 
L 112.448106 209.434727 
L 112.448106 201.956981 
L 112.448106 194.479234 
L 112.448106 187.001488 
L 112.448106 179.523741 
L 112.448106 172.045994 
z
" style="fill:#00008b;fill-opacity:0.5;"/>
   </g>
   <g id="PolyCollection_2">
    <path clip-path="url(#p54be406cfc)" d="M 232.644626 298.919795 
L 229.396712 298.919795 
L 228.79651 300.053851 
L 228.085392 301.187908 
L 227.242863 302.321965 
L 226.244637 303.456021 
L 225.061942 304.590078 
L 223.66069 305.724134 
L 222.000492 306.858191 
L 220.033495 307.992247 
L 217.703005 309.126304 
L 214.941848 310.260361 
L 211.67044 311.394417 
L 207.794488 312.528474 
L 203.202274 313.66253 
L 197.761436 314.796587 
L 191.315152 315.930644 
L 183.677617 317.0647 
L 174.628695 318.198757 
L 163.907565 319.332813 
L 151.20521 320.46687 
L 136.155506 321.600926 
L 232.644626 321.600926 
L 232.644626 321.600926 
L 232.644626 320.46687 
L 232.644626 319.332813 
L 232.644626 318.198757 
L 232.644626 317.0647 
L 232.644626 315.930644 
L 232.644626 314.796587 
L 232.644626 313.66253 
L 232.644626 312.528474 
L 232.644626 311.394417 
L 232.644626 310.260361 
L 232.644626 309.126304 
L 232.644626 307.992247 
L 232.644626 306.858191 
L 232.644626 305.724134 
L 232.644626 304.590078 
L 232.644626 303.456021 
L 232.644626 302.321965 
L 232.644626 301.187908 
L 232.644626 300.053851 
L 232.644626 298.919795 
z
" style="fill:#00008b;fill-opacity:0.5;"/>
   </g>
   <g id="PolyCollection_3">
    <path clip-path="url(#p54be406cfc)" d="M 258.009174 298.919795 
L 256.352027 298.919795 
L 256.352027 300.053851 
L 256.352027 301.187908 
L 256.352027 302.321965 
L 256.352027 303.456021 
L 256.352027 304.590078 
L 256.352027 305.724134 
L 256.352027 306.858191 
L 256.352027 307.992247 
L 256.352027 309.126304 
L 256.352027 310.260361 
L 256.352027 311.394417 
L 256.352027 312.528474 
L 256.352027 313.66253 
L 256.352027 314.796587 
L 256.352027 315.930644 
L 256.352027 317.0647 
L 256.352027 318.198757 
L 256.352027 319.332813 
L 256.352027 320.46687 
L 256.352027 321.600926 
L 432.023864 321.600926 
L 432.023864 321.600926 
L 395.48661 320.46687 
L 366.548587 319.332813 
L 343.629263 318.198757 
L 325.476834 317.0647 
L 311.099853 315.930644 
L 299.713081 314.796587 
L 290.694596 313.66253 
L 283.551828 312.528474 
L 277.894654 311.394417 
L 273.414093 310.260361 
L 269.865425 309.126304 
L 267.054829 307.992247 
L 264.828798 306.858191 
L 263.06575 305.724134 
L 261.66939 304.590078 
L 260.563454 303.456021 
L 259.687537 302.321965 
L 258.993798 301.187908 
L 258.444347 300.053851 
L 258.009174 298.919795 
z
" style="fill:#00008b;fill-opacity:0.5;"/>
   </g>
   <g id="PolyCollection_4">
    <path clip-path="url(#p54be406cfc)" d="M 247.5145 172.045994 
L 240.686769 172.045994 
L 240.686769 178.389684 
L 240.686769 184.733375 
L 240.686769 191.077065 
L 240.686769 197.420755 
L 240.686769 203.764445 
L 240.686769 210.108135 
L 240.686769 216.451825 
L 240.686769 222.795515 
L 240.686769 229.139205 
L 240.686769 235.482895 
L 240.686769 241.826585 
L 240.686769 248.170275 
L 240.686769 254.513965 
L 240.686769 260.857655 
L 240.686769 267.201345 
L 240.686769 273.545035 
L 240.686769 279.888725 
L 240.686769 286.232415 
L 240.686769 292.576105 
L 240.686769 298.919795 
L 247.5145 298.919795 
L 247.5145 298.919795 
L 247.5145 292.576105 
L 247.5145 286.232415 
L 247.5145 279.888725 
L 247.5145 273.545035 
L 247.5145 267.201345 
L 247.5145 260.857655 
L 247.5145 254.513965 
L 247.5145 248.170275 
L 247.5145 241.826585 
L 247.5145 235.482895 
L 247.5145 229.139205 
L 247.5145 222.795515 
L 247.5145 216.451825 
L 247.5145 210.108135 
L 247.5145 203.764445 
L 247.5145 197.420755 
L 247.5145 191.077065 
L 247.5145 184.733375 
L 247.5145 178.389684 
L 247.5145 172.045994 
z
" style="fill:#00008b;fill-opacity:0.5;"/>
   </g>
   <g id="PolyCollection_5">
    <path clip-path="url(#p54be406cfc)" d="M 112.448106 86.552572 
L 72.501136 86.552572 
L 72.501136 90.827243 
L 72.501136 95.101914 
L 72.501136 99.376585 
L 72.501136 103.651257 
L 72.501136 107.925928 
L 72.501136 112.200599 
L 72.501136 116.47527 
L 72.501136 120.749941 
L 72.501136 125.024612 
L 72.501136 129.299283 
L 72.501136 133.573954 
L 72.501136 137.848626 
L 72.501136 142.123297 
L 72.501136 146.397968 
L 72.501136 150.672639 
L 72.501136 154.94731 
L 72.501136 159.221981 
L 72.501136 163.496652 
L 72.501136 167.771323 
L 72.501136 172.045994 
L 112.448106 172.045994 
L 112.448106 172.045994 
L 112.448106 167.771323 
L 112.448106 163.496652 
L 112.448106 159.221981 
L 112.448106 154.94731 
L 112.448106 150.672639 
L 112.448106 146.397968 
L 112.448106 142.123297 
L 112.448106 137.848626 
L 112.448106 133.573954 
L 112.448106 129.299283 
L 112.448106 125.024612 
L 112.448106 120.749941 
L 112.448106 116.47527 
L 112.448106 112.200599 
L 112.448106 107.925928 
L 112.448106 103.651257 
L 112.448106 99.376585 
L 112.448106 95.101914 
L 112.448106 90.827243 
L 112.448106 86.552572 
z
" style="fill:#00008b;fill-opacity:0.5;"/>
   </g>
   <g id="PolyCollection_6">
    <path clip-path="url(#p54be406cfc)" d="M 104.328321 39.542901 
L 80.620921 39.542901 
L 80.620921 41.893385 
L 80.620921 44.243868 
L 80.620921 46.594352 
L 80.620921 48.944835 
L 80.620921 51.295319 
L 80.620921 53.645803 
L 80.620921 55.996286 
L 80.620921 58.34677 
L 80.620921 60.697253 
L 80.620921 63.047737 
L 80.620921 65.39822 
L 80.620921 67.748704 
L 80.620921 70.099187 
L 80.620921 72.449671 
L 80.620921 74.800154 
L 80.620921 77.150638 
L 80.620921 79.501121 
L 80.620921 81.851605 
L 80.620921 84.202089 
L 80.620921 86.552572 
L 104.328321 86.552572 
L 104.328321 86.552572 
L 104.328321 84.202089 
L 104.328321 81.851605 
L 104.328321 79.501121 
L 104.328321 77.150638 
L 104.328321 74.800154 
L 104.328321 72.449671 
L 104.328321 70.099187 
L 104.328321 67.748704 
L 104.328321 65.39822 
L 104.328321 63.047737 
L 104.328321 60.697253 
L 104.328321 58.34677 
L 104.328321 55.996286 
L 104.328321 53.645803 
L 104.328321 51.295319 
L 104.328321 48.944835 
L 104.328321 46.594352 
L 104.328321 44.243868 
L 104.328321 41.893385 
L 104.328321 39.542901 
z
" style="fill:#00008b;fill-opacity:0.5;"/>
   </g>
   <g id="matplotlib.axis_1">
    <g id="xtick_1">
     <g id="line2d_1"/>
     <g id="text_1">
      <!-- YRI -->
      <defs>
       <path d="M 2.046875 71.734375 
L 13.375 71.734375 
L 33.984375 37.25 
L 54.59375 71.734375 
L 65.96875 71.734375 
L 38.875 28.90625 
L 38.875 0 
L 29.15625 0 
L 29.15625 28.90625 
z
M 34.125 71.734375 
z
" id="Helvetica-89"/>
       <path d="M 40.96875 38.875 
Q 47.796875 38.875 51.78125 41.609375 
Q 55.765625 44.34375 55.765625 51.46875 
Q 55.765625 59.125 50.203125 61.921875 
Q 47.21875 63.375 42.234375 63.375 
L 18.5 63.375 
L 18.5 38.875 
z
M 8.796875 71.734375 
L 42 71.734375 
Q 50.203125 71.734375 55.515625 69.34375 
Q 65.625 64.75 65.625 52.390625 
Q 65.625 45.953125 62.953125 41.84375 
Q 60.296875 37.75 55.515625 35.25 
Q 59.71875 33.546875 61.84375 30.765625 
Q 63.96875 27.984375 64.203125 21.734375 
L 64.546875 12.109375 
Q 64.703125 8.015625 65.234375 6 
Q 66.109375 2.59375 68.359375 1.609375 
L 68.359375 0 
L 56.453125 0 
Q 55.953125 0.921875 55.65625 2.390625 
Q 55.375 3.859375 55.171875 8.0625 
L 54.59375 20.015625 
Q 54.25 27.046875 49.359375 29.4375 
Q 46.578125 30.765625 40.625 30.765625 
L 18.5 30.765625 
L 18.5 0 
L 8.796875 0 
z
" id="Helvetica-82"/>
       <path d="M 9.8125 71.734375 
L 19.625 71.734375 
L 19.625 0 
L 9.8125 0 
z
" id="Helvetica-73"/>
      </defs>
      <g transform="translate(85.806496 332.97875)scale(0.08 -0.08)">
       <use xlink:href="#Helvetica-89"/>
       <use x="66.699219" xlink:href="#Helvetica-82"/>
       <use x="138.916016" xlink:href="#Helvetica-73"/>
      </g>
     </g>
    </g>
    <g id="xtick_2">
     <g id="line2d_2"/>
     <g id="text_2">
      <!-- CEU -->
      <defs>
       <path d="M 37.84375 73.6875 
Q 51.46875 73.6875 58.984375 66.5 
Q 66.5 59.328125 67.328125 50.203125 
L 57.859375 50.203125 
Q 56.25 57.125 51.4375 61.171875 
Q 46.625 65.234375 37.9375 65.234375 
Q 27.34375 65.234375 20.828125 57.78125 
Q 14.3125 50.34375 14.3125 34.96875 
Q 14.3125 22.359375 20.1875 14.515625 
Q 26.078125 6.6875 37.75 6.6875 
Q 48.484375 6.6875 54.109375 14.9375 
Q 57.078125 19.28125 58.546875 26.375 
L 68.015625 26.375 
Q 66.75 15.046875 59.625 7.375 
Q 51.078125 -1.859375 36.578125 -1.859375 
Q 24.078125 -1.859375 15.578125 5.71875 
Q 4.390625 15.71875 4.390625 36.625 
Q 4.390625 52.484375 12.796875 62.640625 
Q 21.875 73.6875 37.84375 73.6875 
z
M 35.890625 73.6875 
z
" id="Helvetica-67"/>
       <path d="M 8.546875 71.734375 
L 60.84375 71.734375 
L 60.84375 62.9375 
L 18.015625 62.9375 
L 18.015625 41.15625 
L 57.625 41.15625 
L 57.625 32.859375 
L 18.015625 32.859375 
L 18.015625 8.546875 
L 61.578125 8.546875 
L 61.578125 0 
L 8.546875 0 
z
M 35.0625 71.734375 
z
" id="Helvetica-69"/>
       <path d="M 18.171875 71.734375 
L 18.171875 27.390625 
Q 18.171875 19.578125 21.09375 14.40625 
Q 25.4375 6.59375 35.75 6.59375 
Q 48.09375 6.59375 52.546875 15.046875 
Q 54.9375 19.625 54.9375 27.390625 
L 54.9375 71.734375 
L 64.796875 71.734375 
L 64.796875 31.453125 
Q 64.796875 18.21875 61.234375 11.078125 
Q 54.6875 -1.90625 36.53125 -1.90625 
Q 18.359375 -1.90625 11.859375 11.078125 
Q 8.296875 18.21875 8.296875 31.453125 
L 8.296875 71.734375 
z
M 36.578125 71.734375 
z
" id="Helvetica-85"/>
      </defs>
      <g transform="translate(175.954441 332.97875)scale(0.08 -0.08)">
       <use xlink:href="#Helvetica-67"/>
       <use x="72.216797" xlink:href="#Helvetica-69"/>
       <use x="138.916016" xlink:href="#Helvetica-85"/>
      </g>
     </g>
    </g>
    <g id="xtick_3">
     <g id="line2d_3"/>
     <g id="text_3">
      <!-- CHB -->
      <defs>
       <path d="M 7.859375 71.734375 
L 17.671875 71.734375 
L 17.671875 42.09375 
L 54.984375 42.09375 
L 54.984375 71.734375 
L 64.796875 71.734375 
L 64.796875 0 
L 54.984375 0 
L 54.984375 33.546875 
L 17.671875 33.546875 
L 17.671875 0 
L 7.859375 0 
z
" id="Helvetica-72"/>
       <path d="M 34.578125 41.40625 
Q 40.71875 41.40625 44.140625 43.109375 
Q 49.515625 45.796875 49.515625 52.78125 
Q 49.515625 59.8125 43.796875 62.25 
Q 40.578125 63.625 34.234375 63.625 
L 16.890625 63.625 
L 16.890625 41.40625 
z
M 37.84375 8.296875 
Q 46.78125 8.296875 50.59375 13.484375 
Q 52.984375 16.75 52.984375 21.390625 
Q 52.984375 29.203125 46 32.03125 
Q 42.28125 33.546875 36.1875 33.546875 
L 16.890625 33.546875 
L 16.890625 8.296875 
z
M 7.375 71.734375 
L 38.1875 71.734375 
Q 50.78125 71.734375 56.109375 64.203125 
Q 59.234375 59.765625 59.234375 53.953125 
Q 59.234375 47.171875 55.375 42.828125 
Q 53.375 40.53125 49.609375 38.625 
Q 55.125 36.53125 57.859375 33.890625 
Q 62.703125 29.203125 62.703125 20.953125 
Q 62.703125 14.015625 58.34375 8.40625 
Q 51.859375 0 37.703125 0 
L 7.375 0 
z
" id="Helvetica-66"/>
      </defs>
      <g transform="translate(335.74232 332.97875)scale(0.08 -0.08)">
       <use xlink:href="#Helvetica-67"/>
       <use x="72.216797" xlink:href="#Helvetica-72"/>
       <use x="144.433594" xlink:href="#Helvetica-66"/>
      </g>
     </g>
    </g>
   </g>
   <g id="matplotlib.axis_2">
    <g id="ytick_1">
     <g id="line2d_4">
      <defs>
       <path d="M 0 0 
L -3.5 0 
" id="md7780779ca" style="stroke:#000000;stroke-width:0.8;"/>
      </defs>
      <g>
       <use style="stroke:#000000;stroke-width:0.8;" x="44.525" xlink:href="#md7780779ca" y="321.600926"/>
      </g>
     </g>
     <g id="text_4">
      <!-- 0 -->
      <defs>
       <path d="M 27.046875 69.921875 
Q 40.625 69.921875 46.6875 58.734375 
Q 51.375 50.09375 51.375 35.0625 
Q 51.375 20.796875 47.125 11.46875 
Q 40.96875 -1.90625 27 -1.90625 
Q 14.40625 -1.90625 8.25 9.03125 
Q 3.125 18.171875 3.125 33.546875 
Q 3.125 45.453125 6.203125 54 
Q 11.96875 69.921875 27.046875 69.921875 
z
M 26.953125 6.109375 
Q 33.796875 6.109375 37.84375 12.15625 
Q 41.890625 18.21875 41.890625 34.71875 
Q 41.890625 46.625 38.953125 54.3125 
Q 36.03125 62.015625 27.59375 62.015625 
Q 19.828125 62.015625 16.234375 54.703125 
Q 12.640625 47.40625 12.640625 33.203125 
Q 12.640625 22.515625 14.9375 16.015625 
Q 18.453125 6.109375 26.953125 6.109375 
z
" id="Helvetica-48"/>
      </defs>
      <g transform="translate(33.07625 324.470301)scale(0.08 -0.08)">
       <use xlink:href="#Helvetica-48"/>
      </g>
     </g>
    </g>
    <g id="ytick_2">
     <g id="line2d_5">
      <g>
       <use style="stroke:#000000;stroke-width:0.8;" x="44.525" xlink:href="#md7780779ca" y="268.124088"/>
      </g>
     </g>
     <g id="text_5">
      <!-- 50 -->
      <defs>
       <path d="M 12.359375 17.828125 
Q 13.234375 10.296875 19.34375 7.421875 
Q 22.46875 5.953125 26.5625 5.953125 
Q 34.375 5.953125 38.125 10.9375 
Q 41.890625 15.921875 41.890625 21.96875 
Q 41.890625 29.296875 37.421875 33.296875 
Q 32.953125 37.3125 26.703125 37.3125 
Q 22.171875 37.3125 18.921875 35.546875 
Q 15.671875 33.796875 13.375 30.671875 
L 5.765625 31.109375 
L 11.078125 68.75 
L 47.40625 68.75 
L 47.40625 60.25 
L 17.671875 60.25 
L 14.703125 40.828125 
Q 17.140625 42.671875 19.34375 43.609375 
Q 23.25 45.21875 28.375 45.21875 
Q 37.984375 45.21875 44.671875 39.015625 
Q 51.375 32.8125 51.375 23.296875 
Q 51.375 13.375 45.234375 5.796875 
Q 39.109375 -1.765625 25.6875 -1.765625 
Q 17.140625 -1.765625 10.5625 3.046875 
Q 4 7.859375 3.21875 17.828125 
z
" id="Helvetica-53"/>
      </defs>
      <g transform="translate(28.6275 270.993463)scale(0.08 -0.08)">
       <use xlink:href="#Helvetica-53"/>
       <use x="55.615234" xlink:href="#Helvetica-48"/>
      </g>
     </g>
    </g>
    <g id="ytick_3">
     <g id="line2d_6">
      <g>
       <use style="stroke:#000000;stroke-width:0.8;" x="44.525" xlink:href="#md7780779ca" y="214.647249"/>
      </g>
     </g>
     <g id="text_6">
      <!-- 100 -->
      <defs>
       <path d="M 9.578125 49.515625 
L 9.578125 56.25 
Q 19.09375 57.171875 22.84375 59.34375 
Q 26.609375 61.53125 28.46875 69.625 
L 35.40625 69.625 
L 35.40625 0 
L 26.03125 0 
L 26.03125 49.515625 
z
" id="Helvetica-49"/>
      </defs>
      <g transform="translate(24.17875 217.516624)scale(0.08 -0.08)">
       <use xlink:href="#Helvetica-49"/>
       <use x="55.615234" xlink:href="#Helvetica-48"/>
       <use x="111.230469" xlink:href="#Helvetica-48"/>
      </g>
     </g>
    </g>
    <g id="ytick_4">
     <g id="line2d_7">
      <g>
       <use style="stroke:#000000;stroke-width:0.8;" x="44.525" xlink:href="#md7780779ca" y="161.17041"/>
      </g>
     </g>
     <g id="text_7">
      <!-- 150 -->
      <g transform="translate(24.17875 164.039785)scale(0.08 -0.08)">
       <use xlink:href="#Helvetica-49"/>
       <use x="55.615234" xlink:href="#Helvetica-53"/>
       <use x="111.230469" xlink:href="#Helvetica-48"/>
      </g>
     </g>
    </g>
    <g id="ytick_5">
     <g id="line2d_8">
      <g>
       <use style="stroke:#000000;stroke-width:0.8;" x="44.525" xlink:href="#md7780779ca" y="107.693571"/>
      </g>
     </g>
     <g id="text_8">
      <!-- 200 -->
      <defs>
       <path d="M 3.125 0 
Q 3.609375 9.03125 6.859375 15.71875 
Q 10.109375 22.40625 19.53125 27.875 
L 28.90625 33.296875 
Q 35.203125 36.96875 37.75 39.546875 
Q 41.75 43.609375 41.75 48.828125 
Q 41.75 54.9375 38.078125 58.515625 
Q 34.421875 62.109375 28.328125 62.109375 
Q 19.28125 62.109375 15.828125 55.28125 
Q 13.96875 51.609375 13.765625 45.125 
L 4.828125 45.125 
Q 4.984375 54.25 8.203125 60.015625 
Q 13.921875 70.171875 28.375 70.171875 
Q 40.375 70.171875 45.921875 63.671875 
Q 51.46875 57.171875 51.46875 49.21875 
Q 51.46875 40.828125 45.5625 34.859375 
Q 42.140625 31.390625 33.296875 26.46875 
L 26.609375 22.75 
Q 21.828125 20.125 19.09375 17.71875 
Q 14.203125 13.484375 12.9375 8.296875 
L 51.125 8.296875 
L 51.125 0 
L 3.125 0 
z
" id="Helvetica-50"/>
      </defs>
      <g transform="translate(24.17875 110.562946)scale(0.08 -0.08)">
       <use xlink:href="#Helvetica-50"/>
       <use x="55.615234" xlink:href="#Helvetica-48"/>
       <use x="111.230469" xlink:href="#Helvetica-48"/>
      </g>
     </g>
    </g>
    <g id="ytick_6">
     <g id="line2d_9">
      <g>
       <use style="stroke:#000000;stroke-width:0.8;" x="44.525" xlink:href="#md7780779ca" y="54.216732"/>
      </g>
     </g>
     <g id="text_9">
      <!-- 250 -->
      <g transform="translate(24.17875 57.086107)scale(0.08 -0.08)">
       <use xlink:href="#Helvetica-50"/>
       <use x="55.615234" xlink:href="#Helvetica-53"/>
       <use x="111.230469" xlink:href="#Helvetica-48"/>
      </g>
     </g>
    </g>
    <g id="text_10">
     <!-- Time in past (ky) -->
     <defs>
      <path d="M 59.8125 71.734375 
L 59.8125 63.1875 
L 35.640625 63.1875 
L 35.640625 0 
L 25.78125 0 
L 25.78125 63.1875 
L 1.609375 63.1875 
L 1.609375 71.734375 
z
" id="Helvetica-84"/>
      <path d="M 6.453125 52.046875 
L 15.375 52.046875 
L 15.375 0 
L 6.453125 0 
z
M 6.453125 71.734375 
L 15.375 71.734375 
L 15.375 61.765625 
L 6.453125 61.765625 
z
" id="Helvetica-105"/>
      <path d="M 6.453125 52.296875 
L 15.140625 52.296875 
L 15.140625 44.875 
Q 18.265625 48.734375 20.796875 50.484375 
Q 25.140625 53.46875 30.671875 53.46875 
Q 36.921875 53.46875 40.71875 50.390625 
Q 42.875 48.640625 44.625 45.21875 
Q 47.5625 49.421875 51.515625 51.4375 
Q 55.46875 53.46875 60.40625 53.46875 
Q 70.953125 53.46875 74.75 45.84375 
Q 76.8125 41.75 76.8125 34.8125 
L 76.8125 0 
L 67.671875 0 
L 67.671875 36.328125 
Q 67.671875 41.546875 65.0625 43.5 
Q 62.453125 45.453125 58.6875 45.453125 
Q 53.515625 45.453125 49.78125 41.984375 
Q 46.046875 38.53125 46.046875 30.421875 
L 46.046875 0 
L 37.109375 0 
L 37.109375 34.125 
Q 37.109375 39.453125 35.84375 41.890625 
Q 33.84375 45.5625 28.375 45.5625 
Q 23.390625 45.5625 19.3125 41.703125 
Q 15.234375 37.84375 15.234375 27.734375 
L 15.234375 0 
L 6.453125 0 
z
" id="Helvetica-109"/>
      <path d="M 28.21875 53.46875 
Q 33.796875 53.46875 39.015625 50.859375 
Q 44.234375 48.25 46.96875 44.09375 
Q 49.609375 40.140625 50.484375 34.859375 
Q 51.265625 31.25 51.265625 23.34375 
L 12.9375 23.34375 
Q 13.1875 15.375 16.703125 10.5625 
Q 20.21875 5.765625 27.59375 5.765625 
Q 34.46875 5.765625 38.578125 10.296875 
Q 40.921875 12.9375 41.890625 16.40625 
L 50.53125 16.40625 
Q 50.203125 13.53125 48.265625 9.984375 
Q 46.34375 6.453125 43.953125 4.203125 
Q 39.9375 0.296875 34.03125 -1.078125 
Q 30.859375 -1.859375 26.859375 -1.859375 
Q 17.09375 -1.859375 10.296875 5.25 
Q 3.515625 12.359375 3.515625 25.140625 
Q 3.515625 37.75 10.34375 45.609375 
Q 17.1875 53.46875 28.21875 53.46875 
z
M 42.234375 30.328125 
Q 41.703125 36.03125 39.75 39.453125 
Q 36.140625 45.796875 27.6875 45.796875 
Q 21.625 45.796875 17.515625 41.421875 
Q 13.421875 37.0625 13.1875 30.328125 
z
M 27.390625 53.5625 
z
" id="Helvetica-101"/>
      <path id="Helvetica-32"/>
      <path d="M 6.453125 52.296875 
L 14.796875 52.296875 
L 14.796875 44.875 
Q 18.5 49.46875 22.65625 51.46875 
Q 26.8125 53.46875 31.890625 53.46875 
Q 43.015625 53.46875 46.921875 45.703125 
Q 49.078125 41.453125 49.078125 33.546875 
L 49.078125 0 
L 40.140625 0 
L 40.140625 32.953125 
Q 40.140625 37.75 38.71875 40.671875 
Q 36.375 45.5625 30.21875 45.5625 
Q 27.09375 45.5625 25.09375 44.921875 
Q 21.484375 43.84375 18.75 40.625 
Q 16.546875 38.03125 15.890625 35.265625 
Q 15.234375 32.515625 15.234375 27.390625 
L 15.234375 0 
L 6.453125 0 
z
M 27.09375 53.5625 
z
" id="Helvetica-110"/>
      <path d="M 28.515625 5.90625 
Q 34.671875 5.90625 38.75 11.0625 
Q 42.828125 16.21875 42.828125 26.46875 
Q 42.828125 32.71875 41.015625 37.203125 
Q 37.59375 45.84375 28.515625 45.84375 
Q 19.390625 45.84375 16.015625 36.71875 
Q 14.203125 31.84375 14.203125 24.3125 
Q 14.203125 18.265625 16.015625 14.015625 
Q 19.4375 5.90625 28.515625 5.90625 
z
M 5.765625 52.046875 
L 14.3125 52.046875 
L 14.3125 45.125 
Q 16.9375 48.6875 20.0625 50.640625 
Q 24.515625 53.5625 30.515625 53.5625 
Q 39.40625 53.5625 45.609375 46.75 
Q 51.8125 39.9375 51.8125 27.296875 
Q 51.8125 10.203125 42.875 2.875 
Q 37.203125 -1.765625 29.6875 -1.765625 
Q 23.78125 -1.765625 19.78125 0.828125 
Q 17.4375 2.296875 14.546875 5.859375 
L 14.546875 -20.84375 
L 5.765625 -20.84375 
z
" id="Helvetica-112"/>
      <path d="M 13.1875 13.921875 
Q 13.1875 10.109375 15.96875 7.90625 
Q 18.75 5.71875 22.5625 5.71875 
Q 27.203125 5.71875 31.546875 7.859375 
Q 38.875 11.421875 38.875 19.53125 
L 38.875 26.609375 
Q 37.25 25.59375 34.703125 24.90625 
Q 32.171875 24.21875 29.734375 23.921875 
L 24.421875 23.25 
Q 19.625 22.609375 17.234375 21.234375 
Q 13.1875 18.953125 13.1875 13.921875 
z
M 34.46875 31.6875 
Q 37.5 32.078125 38.53125 34.234375 
Q 39.109375 35.40625 39.109375 37.59375 
Q 39.109375 42.09375 35.90625 44.109375 
Q 32.71875 46.140625 26.765625 46.140625 
Q 19.875 46.140625 17 42.4375 
Q 15.375 40.375 14.890625 36.328125 
L 6.6875 36.328125 
Q 6.9375 46 12.96875 49.78125 
Q 19 53.5625 26.953125 53.5625 
Q 36.1875 53.5625 41.9375 50.046875 
Q 47.65625 46.53125 47.65625 39.109375 
L 47.65625 8.984375 
Q 47.65625 7.625 48.21875 6.78125 
Q 48.78125 5.953125 50.59375 5.953125 
Q 51.171875 5.953125 51.90625 6.03125 
Q 52.640625 6.109375 53.46875 6.25 
L 53.46875 -0.25 
Q 51.421875 -0.828125 50.34375 -0.96875 
Q 49.265625 -1.125 47.40625 -1.125 
Q 42.875 -1.125 40.828125 2.09375 
Q 39.75 3.8125 39.3125 6.9375 
Q 36.625 3.421875 31.59375 0.828125 
Q 26.5625 -1.765625 20.515625 -1.765625 
Q 13.234375 -1.765625 8.609375 2.65625 
Q 4 7.078125 4 13.71875 
Q 4 21 8.546875 25 
Q 13.09375 29 20.453125 29.9375 
z
M 27.203125 53.5625 
z
" id="Helvetica-97"/>
      <path d="M 11.671875 16.40625 
Q 12.0625 12.015625 13.875 9.671875 
Q 17.1875 5.421875 25.390625 5.421875 
Q 30.28125 5.421875 33.984375 7.546875 
Q 37.703125 9.671875 37.703125 14.109375 
Q 37.703125 17.484375 34.71875 19.234375 
Q 32.8125 20.3125 27.203125 21.734375 
L 20.21875 23.484375 
Q 13.53125 25.140625 10.359375 27.203125 
Q 4.6875 30.765625 4.6875 37.0625 
Q 4.6875 44.484375 10.03125 49.0625 
Q 15.375 53.65625 24.421875 53.65625 
Q 36.234375 53.65625 41.453125 46.734375 
Q 44.734375 42.328125 44.625 37.25 
L 36.328125 37.25 
Q 36.078125 40.234375 34.234375 42.671875 
Q 31.203125 46.140625 23.734375 46.140625 
Q 18.75 46.140625 16.1875 44.234375 
Q 13.625 42.328125 13.625 39.203125 
Q 13.625 35.796875 17 33.734375 
Q 18.953125 32.515625 22.75 31.59375 
L 28.5625 30.171875 
Q 38.03125 27.875 41.265625 25.734375 
Q 46.390625 22.359375 46.390625 15.140625 
Q 46.390625 8.15625 41.09375 3.078125 
Q 35.796875 -2 24.953125 -2 
Q 13.28125 -2 8.421875 3.296875 
Q 3.5625 8.59375 3.21875 16.40625 
z
M 24.65625 53.5625 
z
" id="Helvetica-115"/>
      <path d="M 8.203125 66.890625 
L 17.09375 66.890625 
L 17.09375 52.296875 
L 25.4375 52.296875 
L 25.4375 45.125 
L 17.09375 45.125 
L 17.09375 10.984375 
Q 17.09375 8.25 18.953125 7.328125 
Q 19.96875 6.78125 22.359375 6.78125 
Q 23 6.78125 23.734375 6.8125 
Q 24.46875 6.84375 25.4375 6.9375 
L 25.4375 0 
Q 23.921875 -0.4375 22.28125 -0.625 
Q 20.65625 -0.828125 18.75 -0.828125 
Q 12.59375 -0.828125 10.390625 2.3125 
Q 8.203125 5.46875 8.203125 10.5 
L 8.203125 45.125 
L 1.125 45.125 
L 1.125 52.296875 
L 8.203125 52.296875 
z
" id="Helvetica-116"/>
      <path d="M 29.59375 72.90625 
Q 21.921875 58.015625 19.625 50.984375 
Q 16.15625 40.28125 16.15625 26.265625 
Q 16.15625 12.109375 20.125 0.390625 
Q 22.5625 -6.84375 29.734375 -20.40625 
L 23.828125 -20.40625 
Q 16.703125 -9.28125 14.984375 -6.203125 
Q 13.28125 -3.125 11.28125 2.15625 
Q 8.546875 9.375 7.46875 17.578125 
Q 6.9375 21.828125 6.9375 25.6875 
Q 6.9375 40.140625 11.46875 51.421875 
Q 14.359375 58.59375 23.484375 72.90625 
z
" id="Helvetica-40"/>
      <path d="M 6.25 71.734375 
L 14.703125 71.734375 
L 14.703125 30.078125 
L 37.25 52.296875 
L 48.484375 52.296875 
L 28.46875 32.71875 
L 49.609375 0 
L 38.375 0 
L 22.078125 26.375 
L 14.703125 19.625 
L 14.703125 0 
L 6.25 0 
z
" id="Helvetica-107"/>
      <path d="M 39.109375 52.296875 
L 48.828125 52.296875 
Q 46.96875 47.265625 40.578125 29.34375 
Q 35.796875 15.875 32.5625 7.375 
Q 24.953125 -12.640625 21.828125 -17.03125 
Q 18.703125 -21.4375 11.078125 -21.4375 
Q 9.234375 -21.4375 8.234375 -21.28125 
Q 7.234375 -21.140625 5.765625 -20.75 
L 5.765625 -12.75 
Q 8.0625 -13.375 9.078125 -13.515625 
Q 10.109375 -13.671875 10.890625 -13.671875 
Q 13.328125 -13.671875 14.46875 -12.859375 
Q 15.625 -12.0625 16.40625 -10.890625 
Q 16.65625 -10.5 18.15625 -6.875 
Q 19.671875 -3.265625 20.359375 -1.515625 
L 1.03125 52.296875 
L 10.984375 52.296875 
L 25 9.71875 
z
M 24.953125 53.5625 
z
" id="Helvetica-121"/>
      <path d="M 3.46875 -20.40625 
Q 11.234375 -5.28125 13.484375 1.65625 
Q 16.890625 12.15625 16.890625 26.265625 
Q 16.890625 40.375 12.9375 52.09375 
Q 10.5 59.328125 3.328125 72.90625 
L 9.234375 72.90625 
Q 16.75 60.890625 18.328125 58.078125 
Q 19.921875 55.28125 21.78125 50.34375 
Q 24.125 44.234375 25.125 38.28125 
Q 26.125 32.328125 26.125 26.8125 
Q 26.125 12.359375 21.53125 1.03125 
Q 18.65625 -6.25 9.578125 -20.40625 
z
" id="Helvetica-41"/>
     </defs>
     <g transform="translate(18.035 211.538437)rotate(-90)scale(0.1 -0.1)">
      <use xlink:href="#Helvetica-84"/>
      <use x="61.083984" xlink:href="#Helvetica-105"/>
      <use x="83.300781" xlink:href="#Helvetica-109"/>
      <use x="166.601562" xlink:href="#Helvetica-101"/>
      <use x="222.216797" xlink:href="#Helvetica-32"/>
      <use x="250" xlink:href="#Helvetica-105"/>
      <use x="272.216797" xlink:href="#Helvetica-110"/>
      <use x="327.832031" xlink:href="#Helvetica-32"/>
      <use x="355.615234" xlink:href="#Helvetica-112"/>
      <use x="411.230469" xlink:href="#Helvetica-97"/>
      <use x="466.845703" xlink:href="#Helvetica-115"/>
      <use x="516.845703" xlink:href="#Helvetica-116"/>
      <use x="544.628906" xlink:href="#Helvetica-32"/>
      <use x="572.412109" xlink:href="#Helvetica-40"/>
      <use x="605.712891" xlink:href="#Helvetica-107"/>
      <use x="655.712891" xlink:href="#Helvetica-121"/>
      <use x="705.712891" xlink:href="#Helvetica-41"/>
     </g>
    </g>
   </g>
   <g id="line2d_10">
    <path clip-path="url(#p54be406cfc)" d="M 112.448106 172.045994 
L 240.686769 172.045994 
" style="fill:none;stroke:#00008b;stroke-linecap:square;"/>
   </g>
   <g id="line2d_11">
    <path clip-path="url(#p54be406cfc)" d="M 232.644626 298.919795 
L 240.686769 298.919795 
" style="fill:none;stroke:#00008b;stroke-linecap:square;"/>
   </g>
   <g id="line2d_12">
    <path clip-path="url(#p54be406cfc)" d="M 247.5145 298.919795 
L 256.352027 298.919795 
" style="fill:none;stroke:#00008b;stroke-linecap:square;"/>
   </g>
   <g id="line2d_13">
    <path clip-path="url(#p54be406cfc)" d="M 80.620921 39.542901 
L 80.620921 41.893385 
L 80.620921 44.243868 
L 80.620921 46.594352 
L 80.620921 48.944835 
L 80.620921 51.295319 
L 80.620921 53.645803 
L 80.620921 55.996286 
L 80.620921 58.34677 
L 80.620921 60.697253 
L 80.620921 63.047737 
L 80.620921 65.39822 
L 80.620921 67.748704 
L 80.620921 70.099187 
L 80.620921 72.449671 
L 80.620921 74.800154 
L 80.620921 77.150638 
L 80.620921 79.501121 
L 80.620921 81.851605 
L 80.620921 84.202089 
L 80.620921 86.552572 
" style="fill:none;stroke:#00008b;stroke-linecap:square;"/>
   </g>
   <g id="line2d_14">
    <path clip-path="url(#p54be406cfc)" d="M 104.328321 39.542901 
L 104.328321 41.893385 
L 104.328321 44.243868 
L 104.328321 46.594352 
L 104.328321 48.944835 
L 104.328321 51.295319 
L 104.328321 53.645803 
L 104.328321 55.996286 
L 104.328321 58.34677 
L 104.328321 60.697253 
L 104.328321 63.047737 
L 104.328321 65.39822 
L 104.328321 67.748704 
L 104.328321 70.099187 
L 104.328321 72.449671 
L 104.328321 74.800154 
L 104.328321 77.150638 
L 104.328321 79.501121 
L 104.328321 81.851605 
L 104.328321 84.202089 
L 104.328321 86.552572 
" style="fill:none;stroke:#00008b;stroke-linecap:square;"/>
   </g>
   <g id="line2d_15">
    <path clip-path="url(#p54be406cfc)" d="M 80.620921 39.542901 
L 104.328321 39.542901 
" style="fill:none;stroke:#00008b;stroke-linecap:square;"/>
   </g>
   <g id="line2d_16">
    <path clip-path="url(#p54be406cfc)" d="M 72.501136 86.552572 
L 72.501136 90.827243 
L 72.501136 95.101914 
L 72.501136 99.376585 
L 72.501136 103.651257 
L 72.501136 107.925928 
L 72.501136 112.200599 
L 72.501136 116.47527 
L 72.501136 120.749941 
L 72.501136 125.024612 
L 72.501136 129.299283 
L 72.501136 133.573954 
L 72.501136 137.848626 
L 72.501136 142.123297 
L 72.501136 146.397968 
L 72.501136 150.672639 
L 72.501136 154.94731 
L 72.501136 159.221981 
L 72.501136 163.496652 
L 72.501136 167.771323 
L 72.501136 172.045994 
" style="fill:none;stroke:#00008b;stroke-linecap:square;"/>
   </g>
   <g id="line2d_17">
    <path clip-path="url(#p54be406cfc)" d="M 112.448106 86.552572 
L 112.448106 90.827243 
L 112.448106 95.101914 
L 112.448106 99.376585 
L 112.448106 103.651257 
L 112.448106 107.925928 
L 112.448106 112.200599 
L 112.448106 116.47527 
L 112.448106 120.749941 
L 112.448106 125.024612 
L 112.448106 129.299283 
L 112.448106 133.573954 
L 112.448106 137.848626 
L 112.448106 142.123297 
L 112.448106 146.397968 
L 112.448106 150.672639 
L 112.448106 154.94731 
L 112.448106 159.221981 
L 112.448106 163.496652 
L 112.448106 167.771323 
L 112.448106 172.045994 
" style="fill:none;stroke:#00008b;stroke-linecap:square;"/>
   </g>
   <g id="line2d_18">
    <path clip-path="url(#p54be406cfc)" d="M 72.501136 86.552572 
L 80.620921 86.552572 
" style="fill:none;stroke:#00008b;stroke-linecap:square;"/>
   </g>
   <g id="line2d_19">
    <path clip-path="url(#p54be406cfc)" d="M 104.328321 86.552572 
L 112.448106 86.552572 
" style="fill:none;stroke:#00008b;stroke-linecap:square;"/>
   </g>
   <g id="line2d_20">
    <path clip-path="url(#p54be406cfc)" d="M 240.686769 172.045994 
L 240.686769 178.389684 
L 240.686769 184.733375 
L 240.686769 191.077065 
L 240.686769 197.420755 
L 240.686769 203.764445 
L 240.686769 210.108135 
L 240.686769 216.451825 
L 240.686769 222.795515 
L 240.686769 229.139205 
L 240.686769 235.482895 
L 240.686769 241.826585 
L 240.686769 248.170275 
L 240.686769 254.513965 
L 240.686769 260.857655 
L 240.686769 267.201345 
L 240.686769 273.545035 
L 240.686769 279.888725 
L 240.686769 286.232415 
L 240.686769 292.576105 
L 240.686769 298.919795 
" style="fill:none;stroke:#00008b;stroke-linecap:square;"/>
   </g>
   <g id="line2d_21">
    <path clip-path="url(#p54be406cfc)" d="M 247.5145 172.045994 
L 247.5145 178.389684 
L 247.5145 184.733375 
L 247.5145 191.077065 
L 247.5145 197.420755 
L 247.5145 203.764445 
L 247.5145 210.108135 
L 247.5145 216.451825 
L 247.5145 222.795515 
L 247.5145 229.139205 
L 247.5145 235.482895 
L 247.5145 241.826585 
L 247.5145 248.170275 
L 247.5145 254.513965 
L 247.5145 260.857655 
L 247.5145 267.201345 
L 247.5145 273.545035 
L 247.5145 279.888725 
L 247.5145 286.232415 
L 247.5145 292.576105 
L 247.5145 298.919795 
" style="fill:none;stroke:#00008b;stroke-linecap:square;"/>
   </g>
   <g id="line2d_22">
    <path clip-path="url(#p54be406cfc)" d="M 240.686769 298.919795 
L 247.5145 298.919795 
" style="fill:none;stroke:#00008b;stroke-linecap:square;"/>
   </g>
   <g id="line2d_23">
    <path clip-path="url(#p54be406cfc)" d="M 240.686769 172.045994 
L 247.5145 172.045994 
" style="fill:none;stroke:#00008b;stroke-linecap:square;"/>
   </g>
   <g id="line2d_24">
    <path clip-path="url(#p54be406cfc)" d="M 72.501136 172.045994 
L 72.501136 179.523741 
L 72.501136 187.001488 
L 72.501136 194.479234 
L 72.501136 201.956981 
L 72.501136 209.434727 
L 72.501136 216.912474 
L 72.501136 224.390221 
L 72.501136 231.867967 
L 72.501136 239.345714 
L 72.501136 246.82346 
L 72.501136 254.301207 
L 72.501136 261.778954 
L 72.501136 269.2567 
L 72.501136 276.734447 
L 72.501136 284.212193 
L 72.501136 291.68994 
L 72.501136 299.167687 
L 72.501136 306.645433 
L 72.501136 314.12318 
L 72.501136 321.600926 
" style="fill:none;stroke:#00008b;stroke-linecap:square;"/>
   </g>
   <g id="line2d_25">
    <path clip-path="url(#p54be406cfc)" d="M 112.448106 172.045994 
L 112.448106 179.523741 
L 112.448106 187.001488 
L 112.448106 194.479234 
L 112.448106 201.956981 
L 112.448106 209.434727 
L 112.448106 216.912474 
L 112.448106 224.390221 
L 112.448106 231.867967 
L 112.448106 239.345714 
L 112.448106 246.82346 
L 112.448106 254.301207 
L 112.448106 261.778954 
L 112.448106 269.2567 
L 112.448106 276.734447 
L 112.448106 284.212193 
L 112.448106 291.68994 
L 112.448106 299.167687 
L 112.448106 306.645433 
L 112.448106 314.12318 
L 112.448106 321.600926 
" style="fill:none;stroke:#00008b;stroke-linecap:square;"/>
   </g>
   <g id="line2d_26">
    <path clip-path="url(#p54be406cfc)" d="M 72.501136 321.600926 
L 112.448106 321.600926 
" style="fill:none;stroke:#00008b;stroke-linecap:square;"/>
   </g>
   <g id="line2d_27">
    <path clip-path="url(#p54be406cfc)" d="M 229.396712 298.919795 
L 228.79651 300.053851 
L 228.085392 301.187908 
L 227.242863 302.321965 
L 226.244637 303.456021 
L 225.061942 304.590078 
L 223.66069 305.724134 
L 222.000492 306.858191 
L 220.033495 307.992247 
L 217.703005 309.126304 
L 214.941848 310.260361 
L 211.67044 311.394417 
L 207.794488 312.528474 
L 203.202274 313.66253 
L 197.761436 314.796587 
L 191.315152 315.930644 
L 183.677617 317.0647 
L 174.628695 318.198757 
L 163.907565 319.332813 
L 151.20521 320.46687 
L 136.155506 321.600926 
" style="fill:none;stroke:#00008b;stroke-linecap:square;"/>
   </g>
   <g id="line2d_28">
    <path clip-path="url(#p54be406cfc)" d="M 232.644626 298.919795 
L 232.644626 300.053851 
L 232.644626 301.187908 
L 232.644626 302.321965 
L 232.644626 303.456021 
L 232.644626 304.590078 
L 232.644626 305.724134 
L 232.644626 306.858191 
L 232.644626 307.992247 
L 232.644626 309.126304 
L 232.644626 310.260361 
L 232.644626 311.394417 
L 232.644626 312.528474 
L 232.644626 313.66253 
L 232.644626 314.796587 
L 232.644626 315.930644 
L 232.644626 317.0647 
L 232.644626 318.198757 
L 232.644626 319.332813 
L 232.644626 320.46687 
L 232.644626 321.600926 
" style="fill:none;stroke:#00008b;stroke-linecap:square;"/>
   </g>
   <g id="line2d_29">
    <path clip-path="url(#p54be406cfc)" d="M 136.155506 321.600926 
L 232.644626 321.600926 
" style="fill:none;stroke:#00008b;stroke-linecap:square;"/>
   </g>
   <g id="line2d_30">
    <path clip-path="url(#p54be406cfc)" d="M 229.396712 298.919795 
L 232.644626 298.919795 
" style="fill:none;stroke:#00008b;stroke-linecap:square;"/>
   </g>
   <g id="line2d_31">
    <path clip-path="url(#p54be406cfc)" d="M 256.352027 298.919795 
L 256.352027 300.053851 
L 256.352027 301.187908 
L 256.352027 302.321965 
L 256.352027 303.456021 
L 256.352027 304.590078 
L 256.352027 305.724134 
L 256.352027 306.858191 
L 256.352027 307.992247 
L 256.352027 309.126304 
L 256.352027 310.260361 
L 256.352027 311.394417 
L 256.352027 312.528474 
L 256.352027 313.66253 
L 256.352027 314.796587 
L 256.352027 315.930644 
L 256.352027 317.0647 
L 256.352027 318.198757 
L 256.352027 319.332813 
L 256.352027 320.46687 
L 256.352027 321.600926 
" style="fill:none;stroke:#00008b;stroke-linecap:square;"/>
   </g>
   <g id="line2d_32">
    <path clip-path="url(#p54be406cfc)" d="M 258.009174 298.919795 
L 258.444347 300.053851 
L 258.993798 301.187908 
L 259.687537 302.321965 
L 260.563454 303.456021 
L 261.66939 304.590078 
L 263.06575 305.724134 
L 264.828798 306.858191 
L 267.054829 307.992247 
L 269.865425 309.126304 
L 273.414093 310.260361 
L 277.894654 311.394417 
L 283.551828 312.528474 
L 290.694596 313.66253 
L 299.713081 314.796587 
L 311.099853 315.930644 
L 325.476834 317.0647 
L 343.629263 318.198757 
L 366.548587 319.332813 
L 395.48661 320.46687 
L 432.023864 321.600926 
" style="fill:none;stroke:#00008b;stroke-linecap:square;"/>
   </g>
   <g id="line2d_33">
    <path clip-path="url(#p54be406cfc)" d="M 256.352027 321.600926 
L 432.023864 321.600926 
" style="fill:none;stroke:#00008b;stroke-linecap:square;"/>
   </g>
   <g id="line2d_34">
    <path clip-path="url(#p54be406cfc)" d="M 256.352027 298.919795 
L 258.009174 298.919795 
" style="fill:none;stroke:#00008b;stroke-linecap:square;"/>
   </g>
   <g id="patch_3">
    <path d="M 44.525 321.600926 
L 44.525 25.44 
" style="fill:none;stroke:#000000;stroke-linecap:square;stroke-linejoin:miter;stroke-width:0.8;"/>
   </g>
   <g id="patch_4">
    <path d="M 238.686953 235.137791 
Q 176.567255 235.137791 116.165825 235.137791 
" style="fill:none;stroke:#000000;stroke-dasharray:5.686409,2.458988;stroke-dashoffset:0;stroke-linecap:round;stroke-width:1.536867;"/>
    <path d="M 120.165825 237.137791 
L 116.165825 235.137791 
L 120.165825 233.137791 
" style="fill:none;stroke:#000000;stroke-dasharray:5.686409,2.458988;stroke-dashoffset:0;stroke-linecap:round;stroke-width:1.536867;"/>
   </g>
   <g id="patch_5">
    <path d="M 114.447922 206.012316 
Q 176.567621 206.012316 236.96905 206.012316 
" style="fill:none;stroke:#000000;stroke-dasharray:5.686409,2.458988;stroke-dashoffset:0;stroke-linecap:round;stroke-width:1.536867;"/>
    <path d="M 232.96905 204.012316 
L 236.96905 206.012316 
L 232.96905 208.012316 
" style="fill:none;stroke:#000000;stroke-dasharray:5.686409,2.458988;stroke-dashoffset:0;stroke-linecap:round;stroke-width:1.536867;"/>
   </g>
   <g id="patch_6">
    <path d="M 114.445776 316.036256 
Q 151.878779 316.036256 188.905652 316.036256 
" style="fill:none;stroke:#000000;stroke-dasharray:1.344037,0.581205;stroke-dashoffset:0;stroke-linecap:round;stroke-width:0.363253;"/>
    <path d="M 184.905652 314.036256 
L 188.905652 316.036256 
L 184.905652 318.036256 
" style="fill:none;stroke:#000000;stroke-dasharray:1.344037,0.581205;stroke-dashoffset:0;stroke-linecap:round;stroke-width:0.363253;"/>
   </g>
   <g id="patch_7">
    <path d="M 114.446284 304.479011 
Q 184.400947 304.479011 254.082236 304.479011 
" style="fill:none;stroke:#000000;stroke-dasharray:0.9047,0.391222;stroke-dashoffset:0;stroke-linecap:round;stroke-width:0.244514;"/>
    <path d="M 250.082236 302.479011 
L 254.082236 304.479011 
L 250.082236 306.479011 
" style="fill:none;stroke:#000000;stroke-dasharray:0.9047,0.391222;stroke-dashoffset:0;stroke-linecap:round;stroke-width:0.244514;"/>
   </g>
   <g id="patch_8">
    <path d="M 212.943145 309.739738 
Q 163.696957 309.739738 114.856899 309.739738 
" style="fill:none;stroke:#000000;stroke-dasharray:1.344037,0.581205;stroke-dashoffset:0;stroke-linecap:round;stroke-width:0.363253;"/>
    <path d="M 118.856899 311.739738 
L 114.856899 309.739738 
L 118.856899 307.739738 
" style="fill:none;stroke:#000000;stroke-dasharray:1.344037,0.581205;stroke-dashoffset:0;stroke-linecap:round;stroke-width:0.363253;"/>
   </g>
   <g id="patch_9">
    <path d="M 234.644359 313.482587 
Q 244.49787 313.482587 253.372577 313.482587 
" style="fill:none;stroke:#000000;stroke-dasharray:3.239234,1.40075;stroke-dashoffset:0;stroke-linecap:round;stroke-width:0.875469;"/>
    <path d="M 249.372577 311.482587 
L 253.372577 313.482587 
L 249.372577 315.482587 
" style="fill:none;stroke:#000000;stroke-dasharray:3.239234,1.40075;stroke-dashoffset:0;stroke-linecap:round;stroke-width:0.875469;"/>
   </g>
   <g id="patch_10">
    <path d="M 254.353849 303.161587 
Q 184.399185 303.161587 114.717896 303.161587 
" style="fill:none;stroke:#000000;stroke-dasharray:0.9047,0.391222;stroke-dashoffset:0;stroke-linecap:round;stroke-width:0.244514;"/>
    <path d="M 118.717896 305.161587 
L 114.717896 303.161587 
L 118.717896 301.161587 
" style="fill:none;stroke:#000000;stroke-dasharray:0.9047,0.391222;stroke-dashoffset:0;stroke-linecap:round;stroke-width:0.244514;"/>
   </g>
   <g id="patch_11">
    <path d="M 254.352293 318.710378 
Q 244.498783 318.710378 235.624076 318.710378 
" style="fill:none;stroke:#000000;stroke-dasharray:3.239234,1.40075;stroke-dashoffset:0;stroke-linecap:round;stroke-width:0.875469;"/>
    <path d="M 239.624076 320.710378 
L 235.624076 318.710378 
L 239.624076 316.710378 
" style="fill:none;stroke:#000000;stroke-dasharray:3.239234,1.40075;stroke-dashoffset:0;stroke-linecap:round;stroke-width:0.875469;"/>
   </g>
   <g id="text_11">
    <!-- Gutenkunst Out-of-Africa model -->
    <defs>
     <path d="M 38.625 73.578125 
Q 48.734375 73.578125 56.109375 69.671875 
Q 66.796875 64.0625 69.1875 50 
L 59.578125 50 
Q 57.8125 57.859375 52.296875 61.453125 
Q 46.78125 65.046875 38.375 65.046875 
Q 28.421875 65.046875 21.609375 57.5625 
Q 14.796875 50.09375 14.796875 35.296875 
Q 14.796875 22.515625 20.40625 14.484375 
Q 26.03125 6.453125 38.71875 6.453125 
Q 48.4375 6.453125 54.8125 12.078125 
Q 61.1875 17.71875 61.328125 30.328125 
L 38.875 30.328125 
L 38.875 38.375 
L 70.359375 38.375 
L 70.359375 0 
L 64.109375 0 
L 61.765625 9.234375 
Q 56.84375 3.8125 53.03125 1.703125 
Q 46.625 -1.90625 36.765625 -1.90625 
Q 24.03125 -1.90625 14.84375 6.34375 
Q 4.828125 16.703125 4.828125 34.765625 
Q 4.828125 52.78125 14.59375 63.421875 
Q 23.875 73.578125 38.625 73.578125 
z
M 37.015625 73.6875 
z
" id="Helvetica-71"/>
     <path d="M 15.234375 52.296875 
L 15.234375 17.578125 
Q 15.234375 13.578125 16.5 11.03125 
Q 18.84375 6.34375 25.25 6.34375 
Q 34.421875 6.34375 37.75 14.546875 
Q 39.546875 18.953125 39.546875 26.609375 
L 39.546875 52.296875 
L 48.34375 52.296875 
L 48.34375 0 
L 40.046875 0 
L 40.140625 7.71875 
Q 38.421875 4.734375 35.890625 2.6875 
Q 30.859375 -1.421875 23.6875 -1.421875 
Q 12.5 -1.421875 8.453125 6.0625 
Q 6.25 10.0625 6.25 16.75 
L 6.25 52.296875 
z
M 27.296875 53.5625 
z
" id="Helvetica-117"/>
     <path d="M 38.578125 73.6875 
Q 57.5625 73.6875 66.703125 61.46875 
Q 73.828125 51.953125 73.828125 37.109375 
Q 73.828125 21.046875 65.671875 10.40625 
Q 56.109375 -2.09375 38.375 -2.09375 
Q 21.828125 -2.09375 12.359375 8.84375 
Q 3.90625 19.390625 3.90625 35.5 
Q 3.90625 50.046875 11.140625 60.40625 
Q 20.40625 73.6875 38.578125 73.6875 
z
M 39.546875 6.59375 
Q 52.390625 6.59375 58.125 15.796875 
Q 63.875 25 63.875 36.96875 
Q 63.875 49.609375 57.25 57.328125 
Q 50.640625 65.046875 39.15625 65.046875 
Q 28.03125 65.046875 21 57.390625 
Q 13.96875 49.75 13.96875 34.859375 
Q 13.96875 22.953125 20 14.765625 
Q 26.03125 6.59375 39.546875 6.59375 
z
M 38.875 73.6875 
z
" id="Helvetica-79"/>
     <path d="M 4.15625 32.375 
L 28.65625 32.375 
L 28.65625 23.34375 
L 4.15625 23.34375 
z
" id="Helvetica-45"/>
     <path d="M 27.203125 5.671875 
Q 35.9375 5.671875 39.1875 12.28125 
Q 42.4375 18.890625 42.4375 27 
Q 42.4375 34.328125 40.09375 38.921875 
Q 36.375 46.140625 27.296875 46.140625 
Q 19.234375 46.140625 15.578125 39.984375 
Q 11.921875 33.84375 11.921875 25.140625 
Q 11.921875 16.796875 15.578125 11.234375 
Q 19.234375 5.671875 27.203125 5.671875 
z
M 27.546875 53.8125 
Q 37.640625 53.8125 44.625 47.0625 
Q 51.609375 40.328125 51.609375 27.25 
Q 51.609375 14.59375 45.453125 6.34375 
Q 39.3125 -1.90625 26.375 -1.90625 
Q 15.578125 -1.90625 9.21875 5.390625 
Q 2.875 12.703125 2.875 25 
Q 2.875 38.1875 9.5625 46 
Q 16.265625 53.8125 27.546875 53.8125 
z
M 27.25 53.5625 
z
" id="Helvetica-111"/>
     <path d="M 8.640625 60.25 
Q 8.84375 65.71875 10.546875 68.265625 
Q 13.625 72.75 22.40625 72.75 
Q 23.25 72.75 24.125 72.703125 
Q 25 72.65625 26.125 72.5625 
L 26.125 64.546875 
Q 24.75 64.65625 24.140625 64.671875 
Q 23.53125 64.703125 23 64.703125 
Q 19 64.703125 18.21875 62.625 
Q 17.4375 60.546875 17.4375 52.046875 
L 26.125 52.046875 
L 26.125 45.125 
L 17.328125 45.125 
L 17.328125 0 
L 8.640625 0 
L 8.640625 45.125 
L 1.375 45.125 
L 1.375 52.046875 
L 8.640625 52.046875 
L 8.640625 60.25 
z
" id="Helvetica-102"/>
     <path d="M 44.4375 29.390625 
L 33.546875 61.078125 
L 21.96875 29.390625 
z
M 28.46875 71.734375 
L 39.453125 71.734375 
L 65.484375 0 
L 54.828125 0 
L 47.5625 21.484375 
L 19.1875 21.484375 
L 11.421875 0 
L 1.46875 0 
z
M 33.5 71.734375 
z
" id="Helvetica-65"/>
     <path d="M 6.6875 52.296875 
L 15.046875 52.296875 
L 15.046875 43.265625 
Q 16.0625 45.90625 20.0625 49.6875 
Q 24.078125 53.46875 29.296875 53.46875 
Q 29.546875 53.46875 30.125 53.421875 
Q 30.71875 53.375 32.125 53.21875 
L 32.125 43.953125 
Q 31.34375 44.09375 30.6875 44.140625 
Q 30.03125 44.1875 29.25 44.1875 
Q 22.609375 44.1875 19.046875 39.90625 
Q 15.484375 35.640625 15.484375 30.078125 
L 15.484375 0 
L 6.6875 0 
z
" id="Helvetica-114"/>
     <path d="M 26.609375 53.8125 
Q 35.453125 53.8125 40.984375 49.515625 
Q 46.53125 45.21875 47.65625 34.71875 
L 39.109375 34.71875 
Q 38.328125 39.546875 35.546875 42.75 
Q 32.765625 45.953125 26.609375 45.953125 
Q 18.21875 45.953125 14.59375 37.75 
Q 12.25 32.421875 12.25 24.609375 
Q 12.25 16.75 15.5625 11.375 
Q 18.890625 6 26.03125 6 
Q 31.5 6 34.6875 9.34375 
Q 37.890625 12.703125 39.109375 18.5 
L 47.65625 18.5 
Q 46.1875 8.109375 40.328125 3.296875 
Q 34.46875 -1.515625 25.34375 -1.515625 
Q 15.09375 -1.515625 8.984375 5.984375 
Q 2.875 13.484375 2.875 24.703125 
Q 2.875 38.484375 9.5625 46.140625 
Q 16.265625 53.8125 26.609375 53.8125 
z
M 25.25 53.5625 
z
" id="Helvetica-99"/>
     <path d="M 12.015625 25.53125 
Q 12.015625 17.140625 15.578125 11.46875 
Q 19.140625 5.8125 27 5.8125 
Q 33.109375 5.8125 37.03125 11.0625 
Q 40.96875 16.3125 40.96875 26.125 
Q 40.96875 36.03125 36.90625 40.796875 
Q 32.859375 45.5625 26.90625 45.5625 
Q 20.265625 45.5625 16.140625 40.484375 
Q 12.015625 35.40625 12.015625 25.53125 
z
M 25.25 53.21875 
Q 31.25 53.21875 35.296875 50.6875 
Q 37.640625 49.21875 40.625 45.5625 
L 40.625 71.96875 
L 49.078125 71.96875 
L 49.078125 0 
L 41.15625 0 
L 41.15625 7.28125 
Q 38.09375 2.4375 33.890625 0.28125 
Q 29.6875 -1.859375 24.265625 -1.859375 
Q 15.53125 -1.859375 9.125 5.484375 
Q 2.734375 12.84375 2.734375 25.046875 
Q 2.734375 36.46875 8.5625 44.84375 
Q 14.40625 53.21875 25.25 53.21875 
z
" id="Helvetica-100"/>
     <path d="M 6.6875 71.734375 
L 15.484375 71.734375 
L 15.484375 0 
L 6.6875 0 
z
" id="Helvetica-108"/>
    </defs>
    <g transform="translate(167.89875 19.44)scale(0.12 -0.12)">
     <use xlink:href="#Helvetica-71"/>
     <use x="77.783203" xlink:href="#Helvetica-117"/>
     <use x="133.398438" xlink:href="#Helvetica-116"/>
     <use x="161.181641" xlink:href="#Helvetica-101"/>
     <use x="216.796875" xlink:href="#Helvetica-110"/>
     <use x="272.412109" xlink:href="#Helvetica-107"/>
     <use x="322.412109" xlink:href="#Helvetica-117"/>
     <use x="378.027344" xlink:href="#Helvetica-110"/>
     <use x="433.642578" xlink:href="#Helvetica-115"/>
     <use x="483.642578" xlink:href="#Helvetica-116"/>
     <use x="511.425781" xlink:href="#Helvetica-32"/>
     <use x="539.208984" xlink:href="#Helvetica-79"/>
     <use x="616.992188" xlink:href="#Helvetica-117"/>
     <use x="672.607422" xlink:href="#Helvetica-116"/>
     <use x="700.390625" xlink:href="#Helvetica-45"/>
     <use x="733.691406" xlink:href="#Helvetica-111"/>
     <use x="789.306641" xlink:href="#Helvetica-102"/>
     <use x="817.089844" xlink:href="#Helvetica-45"/>
     <use x="850.390625" xlink:href="#Helvetica-65"/>
     <use x="917.089844" xlink:href="#Helvetica-102"/>
     <use x="944.873047" xlink:href="#Helvetica-114"/>
     <use x="978.173828" xlink:href="#Helvetica-105"/>
     <use x="1000.390625" xlink:href="#Helvetica-99"/>
     <use x="1050.390625" xlink:href="#Helvetica-97"/>
     <use x="1106.005859" xlink:href="#Helvetica-32"/>
     <use x="1133.789062" xlink:href="#Helvetica-109"/>
     <use x="1217.089844" xlink:href="#Helvetica-111"/>
     <use x="1272.705078" xlink:href="#Helvetica-100"/>
     <use x="1328.320312" xlink:href="#Helvetica-101"/>
     <use x="1383.935547" xlink:href="#Helvetica-108"/>
    </g>
   </g>
  </g>
 </g>
 <defs>
  <clipPath id="p54be406cfc">
   <rect height="298.3" width="395.475" x="54.525" y="25.44"/>
  </clipPath>
 </defs>
</svg>
