<?xml version="1.0" encoding="utf-8" standalone="no"?>
<!DOCTYPE svg PUBLIC "-//W3C//DTD SVG 1.1//EN"
  "http://www.w3.org/Graphics/SVG/1.1/DTD/svg11.dtd">
<!-- Created with matplotlib (http://matplotlib.org/) -->
<svg height="432pt" version="1.1" viewBox="0 0 1152 432" width="1152pt" xmlns="http://www.w3.org/2000/svg" xmlns:xlink="http://www.w3.org/1999/xlink">
 <defs>
  <style type="text/css">
*{stroke-linecap:butt;stroke-linejoin:round;}
  </style>
 </defs>
 <g id="figure_1">
  <g id="patch_1">
   <path d="
M0 432
L1152 432
L1152 0
L0 0
z
" style="fill:#ffffff;"/>
  </g>
  <g id="axes_1">
   <g id="patch_2">
    <path d="
M144 388.8
L1036.8 388.8
L1036.8 43.2
L144 43.2
z
" style="fill:#ffffff;"/>
   </g>
   <g id="line2d_1">
    <path clip-path="url(#pc66ef7dc0a)" d="
M168.701 280.151
L170.354 304.719
L172.007 304.226
L173.66 308.887
L175.313 320.558
L176.966 386.661
L178.619 386.494
L180.272 386.514
L181.925 381.861
L183.578 373.635
L186.884 372.144
L188.537 362.067
L190.19 384.337
L191.843 351.686
L193.496 368.409
L195.149 358.556
L196.802 356.782
L198.455 361.925
L200.108 338.086
L201.761 259.254
L203.414 321.584
L205.068 345.118
L206.721 46.645
L208.374 269.388
L210.027 202.167
L211.68 329.369
L213.333 291.246
L214.986 339.352
L216.639 380.651
L218.292 374.851
L219.945 274.862
L221.598 360.061
L223.251 375.421
L224.904 338.871
L226.557 277.023
L228.21 325.744
L229.863 251.743
L231.516 252.462
L234.822 348.122
L236.475 342.599
L238.128 384.626
L239.781 347.269
L241.434 374.659
L243.087 379.9
L244.74 386.963
L246.393 387.355
L248.046 385.594
L249.699 365.514
L251.352 273.656
L253.005 304.298
L254.658 310.129
L256.311 367.216
L257.964 336.343
L259.617 361.635
L261.27 368.406
L262.923 382.126
L264.576 341.111
L266.229 261.279
L267.882 128.461
L269.535 314.478
L271.188 324.54
L276.147 314.473
L277.8 341.527
L279.453 377.83
L281.106 383.824
L282.759 292.471
L284.412 281.702
L286.065 387.378
L287.718 386.606
L289.371 387.419
L291.024 302.415
L292.677 275.365
L294.33 317.387
L297.636 381.557
L300.942 311.361
L302.596 369.201
L305.902 387.195
L307.555 368.558
L309.208 368.511
L310.861 384.814
L312.514 386.112
L314.167 382.131
L315.82 313.4
L317.473 278.814
L319.126 327.443
L320.779 324.282
L322.432 220.672
L324.085 329.278
L325.738 304.849
L327.391 336.04
L329.044 338.749
L330.697 359.752
L332.35 305.45
L334.003 318.389
L335.656 310.028
L337.309 289.418
L338.962 382.198
L340.615 364.538
L342.268 382.514
L343.921 380.705
L345.574 356.259
L347.227 250.014
L348.88 360.453
L350.533 329.776
L352.186 207.074
L353.839 321.603
L355.492 383.174
L357.145 359.893
L358.798 344.757
L360.451 366.83
L362.104 379.336
L363.757 120.184
L365.41 387.093
L367.063 388.125
L368.716 377.917
L370.369 385.569
L372.022 386.169
L373.675 387.233
L375.328 380.38
L376.981 361.438
L378.634 373.4
L380.287 358.006
L381.94 364.487
L383.593 329.92
L385.246 282.457
L386.899 363.848
L388.552 320.582
L390.205 382.874
L391.858 344.435
L393.511 274.905
L395.164 372.232
L396.817 360.166
L398.471 360.713
L400.124 283.127
L401.777 386.496
L403.43 386.094
L405.083 334.87
L406.736 365.801
L408.389 258.87
L410.042 327.017
L411.695 317.285
L413.348 341.633
L415.001 379.639
L416.654 348.078
L418.307 301.379
L419.96 269.031
L421.613 383.051
L423.266 352.77
L424.919 372.9
L426.572 370.438
L428.225 303.082
L429.878 257.358
L431.531 346.462
L433.184 328.579
L434.837 250.429
L436.49 316.877
L438.143 325.61
L439.796 282.773
L441.449 281.806
L443.102 245.531
L444.755 225.555
L446.408 307.009
L448.061 288.484
L449.714 343.903
L451.367 322.011
L453.02 289.479
L454.673 355.937
L456.326 383.601
L457.979 384.931
L459.632 386.861
L461.285 386.99
L462.938 385.187
L466.244 387.319
L467.897 387.497
L469.55 387.865
L471.203 387.249
L472.856 387.722
L474.509 379.535
L476.162 386.616
L477.815 386.328
L479.468 385.283
L481.121 384.445
L482.774 305.673
L484.427 371.235
L486.08 340.891
L487.733 359.469
L489.386 387.178
L491.039 341.634
L492.692 371.093
L494.346 386.766
L495.999 387.089
L497.652 374.98
L499.305 381.753
L500.958 382.746
L502.611 386.766
L504.264 387.023
L505.917 381.503
L507.57 387.424
L509.223 370.456
L510.876 365.121
L512.529 388.157
L514.182 384.686
L515.835 376.098
L517.488 351.57
L519.141 377.939
L520.794 363.025
L522.447 382.532
L524.1 378.512
L525.753 348.805
L527.406 388.264
L529.059 318.367
L530.712 379.334
L532.365 343.64
L534.018 386.208
L535.671 387.936
L537.324 386.385
L538.977 386.103
L540.63 386.765
L542.283 386.174
L543.936 386.49
L545.589 386.147
L547.242 385.528
L548.895 383.701
L550.548 346.701
L552.201 387.02
L553.854 387.77
L555.507 367.299
L557.16 370.404
L558.813 328.922
L560.466 374.862
L562.119 283.544
L563.772 347.159
L565.425 227.407
L567.078 356.328
L568.731 353.333
L570.384 370.892
L572.037 370.144
L573.69 382.96
L575.343 380.007
L576.996 363.834
L578.649 287.625
L580.302 378.323
L581.955 318.041
L583.608 340.677
L585.261 340.404
L586.914 354.712
L588.567 341.067
L590.221 370.303
L591.874 321.384
L593.527 376.376
L595.18 360.24
L596.833 364.047
L598.486 326.522
L600.139 374.031
L601.792 361.522
L603.445 379.316
L605.098 380.546
L606.751 377.823
L608.404 359.39
L610.057 360.237
L611.71 385.315
L613.363 356.636
L615.016 385.123
L616.669 361.422
L618.322 380.279
L619.975 377.432
L621.628 347.47
L623.281 364.86
L624.934 342.062
L626.587 382.123
L628.24 379.38
L629.893 375.013
L631.546 350.42
L633.199 334.225
L634.852 315.793
L636.505 359.865
L638.158 344.206
L639.811 348.306
L641.464 386.74
L643.117 388.794
L644.77 388.599
L646.423 369.099
L648.076 364.344
L649.729 354.048
L651.382 309.632
L653.035 346.993
L654.688 366.174
L656.341 372.449
L657.994 228.962
L659.647 321.59
L661.3 352.035
L662.953 371.835
L664.606 332.637
L666.259 288.906
L667.912 286.737
L669.565 376.846
L671.218 354.241
L672.871 291.07
L674.524 364.928
L676.177 278.621
L677.83 331.908
L679.483 326.942
L681.136 351.799
L682.789 248.136
L684.442 380.269
L686.096 380.717
L687.749 386.45
L689.402 387.615
L691.055 386.941
L692.708 387.715
L694.361 350.082
L696.014 376.825
L697.667 370.13
L699.32 352.491
L700.973 348.951
L702.626 372.09
L704.279 337.535
L705.932 387.736
L707.585 388.054
L709.238 387.188
L710.891 374.6
L712.544 371.393
L714.197 343.836
L715.85 343.533
L717.503 359.31
L719.156 367.757
L720.809 306.17
L722.462 361.075
L724.115 330.31
L725.768 346.49
L727.421 366.496
L729.074 353.746
L730.727 360.465
L732.38 328.73
L734.033 386.857
L735.686 387.382
L737.339 380.911
L738.992 356.911
L740.645 382.318
L742.298 376.035
L743.951 375.872
L745.604 384.509
L747.257 372.281
L748.91 380.808
L750.563 387.157
L752.216 387.658
L753.869 388.038
L755.522 380.502
L757.175 383.565
L758.828 381.414
L760.481 388.441
L762.134 388.111
L763.787 381.37
L765.44 386.716
L767.093 388.127
L768.746 382.052
L770.399 387.236
L772.052 381.558
L773.705 386.654
L775.358 387.42
L777.011 385.232
L778.664 387.552
L780.317 388.279
L781.971 386.73
L783.624 379.893
L785.277 380.12
L786.93 385.078
L788.583 381.603
L790.236 384.205
L791.889 386.017
L793.542 350.25
L795.195 368.977
L796.848 376.639
L798.501 280.64
L800.154 381.503
L803.46 342.927
L805.113 348.343
L806.766 386.782
L808.419 382.81
L810.072 382.894
L811.725 374.095
L813.378 354.993
L815.031 338.528
L816.684 310.066
L818.337 334.496
L819.99 348.835
L821.643 342.436
L823.296 383.253
L824.949 382.874
L826.602 385.063
L828.255 386.067
L829.908 377.855
L831.561 286.817
L833.214 372.038
L834.867 291.039
L836.52 235.324
L838.173 313.981
L839.826 354.834
L841.479 222.555
L843.132 289.792
L844.785 322.311
L846.438 327.113
L848.091 316.319
L849.744 321.279
L851.397 275.583
L853.05 274.078
L854.703 354.233
L856.356 363.183
L858.009 249.341
L859.662 328.376
L861.315 359.836
L862.968 332.3
L864.621 352.514
L866.274 386.46
L867.927 354.081
L869.58 294.731
L871.233 333.293
L872.886 377.639
L874.539 380.689
L876.192 380.785
L877.846 345.387
L881.152 360.911
L882.805 284.439
L884.458 334.344
L886.111 356.603
L887.764 377.304
L889.417 374.065
L891.07 318.732
L892.723 284.063
L894.376 354.972
L896.029 379.377
L897.682 320.646
L899.335 368.056
L900.988 376.428
L902.641 355.438
L904.294 378.809
L905.947 330.313
L907.6 315.519
L909.253 287.13
L910.906 294.916
L912.559 353.123
L914.212 342.986
L915.865 383.12
L917.518 279.467
L919.171 347.721
L920.824 375.556
L922.477 361.785
L924.13 281.502
L925.783 359.995
L927.436 327.983
L929.089 322.567
L930.742 341.804
L932.395 355.027
L934.048 229.523
L935.701 253.451
L937.354 283.661
L939.007 325.981
L940.66 341.13
L942.313 297.498
L943.966 324.128
L945.619 302.483
L947.272 286.27
L948.925 316.705
L950.578 305.73
L952.231 342.966
L953.884 343.863
L955.537 293.679
L957.19 317.976
L958.843 220.557
L960.496 230.227
L962.149 304.523
L963.802 179.079
L965.455 384.846
L967.108 365.978
L968.761 301.683
L970.414 376.395
L972.067 384.67
L973.721 360.083
L975.374 374.127
L977.027 347.577
L978.68 384.997
L980.333 362.979
L981.986 375.843
L983.639 352.01
L985.292 376.87
L986.945 315.423
L988.598 372.061
L990.251 353.175
L991.904 354.626
L993.557 371.256
L993.557 371.256" style="fill:none;stroke:#0000ff;stroke-linecap:square;"/>
   </g>
   <g id="patch_3">
    <path d="
M144 43.2
L1036.8 43.2" style="fill:none;stroke:#000000;stroke-linecap:square;stroke-linejoin:miter;"/>
   </g>
   <g id="patch_4">
    <path d="
M1036.8 388.8
L1036.8 43.2" style="fill:none;stroke:#000000;stroke-linecap:square;stroke-linejoin:miter;"/>
   </g>
   <g id="patch_5">
    <path d="
M144 388.8
L1036.8 388.8" style="fill:none;stroke:#000000;stroke-linecap:square;stroke-linejoin:miter;"/>
   </g>
   <g id="patch_6">
    <path d="
M144 388.8
L144 43.2" style="fill:none;stroke:#000000;stroke-linecap:square;stroke-linejoin:miter;"/>
   </g>
   <g id="matplotlib.axis_1">
    <g id="xtick_1">
     <g id="line2d_2">
      <defs>
       <path d="
M0 0
L0 -4" id="m93b0483c22" style="stroke:#000000;stroke-width:0.5;"/>
      </defs>
      <g>
       <use style="stroke:#000000;stroke-width:0.5;" x="144.0" xlink:href="#m93b0483c22" y="388.8"/>
      </g>
     </g>
     <g id="line2d_3">
      <defs>
       <path d="
M0 0
L0 4" id="m741efc42ff" style="stroke:#000000;stroke-width:0.5;"/>
      </defs>
      <g>
       <use style="stroke:#000000;stroke-width:0.5;" x="144.0" xlink:href="#m741efc42ff" y="43.2"/>
      </g>
     </g>
     <g id="text_1">
      <!-- 1.5 -->
      <defs>
       <path d="
M12.4062 8.29688
L28.5156 8.29688
L28.5156 63.9219
L10.9844 60.4062
L10.9844 69.3906
L28.4219 72.9062
L38.2812 72.9062
L38.2812 8.29688
L54.3906 8.29688
L54.3906 0
L12.4062 0
z
" id="DejaVuSans-31"/>
       <path d="
M10.7969 72.9062
L49.5156 72.9062
L49.5156 64.5938
L19.8281 64.5938
L19.8281 46.7344
Q21.9688 47.4688 24.1094 47.8281
Q26.2656 48.1875 28.4219 48.1875
Q40.625 48.1875 47.75 41.5
Q54.8906 34.8125 54.8906 23.3906
Q54.8906 11.625 47.5625 5.09375
Q40.2344 -1.42188 26.9062 -1.42188
Q22.3125 -1.42188 17.5469 -0.640625
Q12.7969 0.140625 7.71875 1.70312
L7.71875 11.625
Q12.1094 9.23438 16.7969 8.0625
Q21.4844 6.89062 26.7031 6.89062
Q35.1562 6.89062 40.0781 11.3281
Q45.0156 15.7656 45.0156 23.3906
Q45.0156 31 40.0781 35.4375
Q35.1562 39.8906 26.7031 39.8906
Q22.75 39.8906 18.8125 39.0156
Q14.8906 38.1406 10.7969 36.2812
z
" id="DejaVuSans-35"/>
       <path d="
M10.6875 12.4062
L21 12.4062
L21 0
L10.6875 0
z
" id="DejaVuSans-2e"/>
      </defs>
      <g transform="translate(135.64125 401.918125)scale(0.12 -0.12)">
       <use xlink:href="#DejaVuSans-31"/>
       <use x="63.623046875" xlink:href="#DejaVuSans-2e"/>
       <use x="95.41015625" xlink:href="#DejaVuSans-35"/>
      </g>
     </g>
    </g>
    <g id="xtick_2">
     <g id="line2d_4">
      <g>
       <use style="stroke:#000000;stroke-width:0.5;" x="261.473684211" xlink:href="#m93b0483c22" y="388.8"/>
      </g>
     </g>
     <g id="line2d_5">
      <g>
       <use style="stroke:#000000;stroke-width:0.5;" x="261.473684211" xlink:href="#m741efc42ff" y="43.2"/>
      </g>
     </g>
     <g id="text_2">
      <!-- 2.0 -->
      <defs>
       <path d="
M31.7812 66.4062
Q24.1719 66.4062 20.3281 58.9062
Q16.5 51.4219 16.5 36.375
Q16.5 21.3906 20.3281 13.8906
Q24.1719 6.39062 31.7812 6.39062
Q39.4531 6.39062 43.2812 13.8906
Q47.125 21.3906 47.125 36.375
Q47.125 51.4219 43.2812 58.9062
Q39.4531 66.4062 31.7812 66.4062
M31.7812 74.2188
Q44.0469 74.2188 50.5156 64.5156
Q56.9844 54.8281 56.9844 36.375
Q56.9844 17.9688 50.5156 8.26562
Q44.0469 -1.42188 31.7812 -1.42188
Q19.5312 -1.42188 13.0625 8.26562
Q6.59375 17.9688 6.59375 36.375
Q6.59375 54.8281 13.0625 64.5156
Q19.5312 74.2188 31.7812 74.2188" id="DejaVuSans-30"/>
       <path d="
M19.1875 8.29688
L53.6094 8.29688
L53.6094 0
L7.32812 0
L7.32812 8.29688
Q12.9375 14.1094 22.625 23.8906
Q32.3281 33.6875 34.8125 36.5312
Q39.5469 41.8438 41.4219 45.5312
Q43.3125 49.2188 43.3125 52.7812
Q43.3125 58.5938 39.2344 62.25
Q35.1562 65.9219 28.6094 65.9219
Q23.9688 65.9219 18.8125 64.3125
Q13.6719 62.7031 7.8125 59.4219
L7.8125 69.3906
Q13.7656 71.7812 18.9375 73
Q24.125 74.2188 28.4219 74.2188
Q39.75 74.2188 46.4844 68.5469
Q53.2188 62.8906 53.2188 53.4219
Q53.2188 48.9219 51.5312 44.8906
Q49.8594 40.875 45.4062 35.4062
Q44.1875 33.9844 37.6406 27.2188
Q31.1094 20.4531 19.1875 8.29688" id="DejaVuSans-32"/>
      </defs>
      <g transform="translate(252.769934211 401.918125)scale(0.12 -0.12)">
       <use xlink:href="#DejaVuSans-32"/>
       <use x="63.623046875" xlink:href="#DejaVuSans-2e"/>
       <use x="95.41015625" xlink:href="#DejaVuSans-30"/>
      </g>
     </g>
    </g>
    <g id="xtick_3">
     <g id="line2d_6">
      <g>
       <use style="stroke:#000000;stroke-width:0.5;" x="378.947368421" xlink:href="#m93b0483c22" y="388.8"/>
      </g>
     </g>
     <g id="line2d_7">
      <g>
       <use style="stroke:#000000;stroke-width:0.5;" x="378.947368421" xlink:href="#m741efc42ff" y="43.2"/>
      </g>
     </g>
     <g id="text_3">
      <!-- 2.5 -->
      <g transform="translate(370.369243421 401.918125)scale(0.12 -0.12)">
       <use xlink:href="#DejaVuSans-32"/>
       <use x="63.623046875" xlink:href="#DejaVuSans-2e"/>
       <use x="95.41015625" xlink:href="#DejaVuSans-35"/>
      </g>
     </g>
    </g>
    <g id="xtick_4">
     <g id="line2d_8">
      <g>
       <use style="stroke:#000000;stroke-width:0.5;" x="496.421052632" xlink:href="#m93b0483c22" y="388.8"/>
      </g>
     </g>
     <g id="line2d_9">
      <g>
       <use style="stroke:#000000;stroke-width:0.5;" x="496.421052632" xlink:href="#m741efc42ff" y="43.2"/>
      </g>
     </g>
     <g id="text_4">
      <!-- 3.0 -->
      <defs>
       <path d="
M40.5781 39.3125
Q47.6562 37.7969 51.625 33
Q55.6094 28.2188 55.6094 21.1875
Q55.6094 10.4062 48.1875 4.48438
Q40.7656 -1.42188 27.0938 -1.42188
Q22.5156 -1.42188 17.6562 -0.515625
Q12.7969 0.390625 7.625 2.20312
L7.625 11.7188
Q11.7188 9.32812 16.5938 8.10938
Q21.4844 6.89062 26.8125 6.89062
Q36.0781 6.89062 40.9375 10.5469
Q45.7969 14.2031 45.7969 21.1875
Q45.7969 27.6406 41.2812 31.2656
Q36.7656 34.9062 28.7188 34.9062
L20.2188 34.9062
L20.2188 43.0156
L29.1094 43.0156
Q36.375 43.0156 40.2344 45.9219
Q44.0938 48.8281 44.0938 54.2969
Q44.0938 59.9062 40.1094 62.9062
Q36.1406 65.9219 28.7188 65.9219
Q24.6562 65.9219 20.0156 65.0312
Q15.375 64.1562 9.8125 62.3125
L9.8125 71.0938
Q15.4375 72.6562 20.3438 73.4375
Q25.25 74.2188 29.5938 74.2188
Q40.8281 74.2188 47.3594 69.1094
Q53.9062 64.0156 53.9062 55.3281
Q53.9062 49.2656 50.4375 45.0938
Q46.9688 40.9219 40.5781 39.3125" id="DejaVuSans-33"/>
      </defs>
      <g transform="translate(487.735115132 401.918125)scale(0.12 -0.12)">
       <use xlink:href="#DejaVuSans-33"/>
       <use x="63.623046875" xlink:href="#DejaVuSans-2e"/>
       <use x="95.41015625" xlink:href="#DejaVuSans-30"/>
      </g>
     </g>
    </g>
    <g id="xtick_5">
     <g id="line2d_10">
      <g>
       <use style="stroke:#000000;stroke-width:0.5;" x="613.894736842" xlink:href="#m93b0483c22" y="388.8"/>
      </g>
     </g>
     <g id="line2d_11">
      <g>
       <use style="stroke:#000000;stroke-width:0.5;" x="613.894736842" xlink:href="#m741efc42ff" y="43.2"/>
      </g>
     </g>
     <g id="text_5">
      <!-- 3.5 -->
      <g transform="translate(605.334424342 401.918125)scale(0.12 -0.12)">
       <use xlink:href="#DejaVuSans-33"/>
       <use x="63.623046875" xlink:href="#DejaVuSans-2e"/>
       <use x="95.41015625" xlink:href="#DejaVuSans-35"/>
      </g>
     </g>
    </g>
    <g id="xtick_6">
     <g id="line2d_12">
      <g>
       <use style="stroke:#000000;stroke-width:0.5;" x="731.368421053" xlink:href="#m93b0483c22" y="388.8"/>
      </g>
     </g>
     <g id="line2d_13">
      <g>
       <use style="stroke:#000000;stroke-width:0.5;" x="731.368421053" xlink:href="#m741efc42ff" y="43.2"/>
      </g>
     </g>
     <g id="text_6">
      <!-- 4.0 -->
      <defs>
       <path d="
M37.7969 64.3125
L12.8906 25.3906
L37.7969 25.3906
z

M35.2031 72.9062
L47.6094 72.9062
L47.6094 25.3906
L58.0156 25.3906
L58.0156 17.1875
L47.6094 17.1875
L47.6094 0
L37.7969 0
L37.7969 17.1875
L4.89062 17.1875
L4.89062 26.7031
z
" id="DejaVuSans-34"/>
      </defs>
      <g transform="translate(722.518421053 401.918125)scale(0.12 -0.12)">
       <use xlink:href="#DejaVuSans-34"/>
       <use x="63.623046875" xlink:href="#DejaVuSans-2e"/>
       <use x="95.41015625" xlink:href="#DejaVuSans-30"/>
      </g>
     </g>
    </g>
    <g id="xtick_7">
     <g id="line2d_14">
      <g>
       <use style="stroke:#000000;stroke-width:0.5;" x="848.842105263" xlink:href="#m93b0483c22" y="388.8"/>
      </g>
     </g>
     <g id="line2d_15">
      <g>
       <use style="stroke:#000000;stroke-width:0.5;" x="848.842105263" xlink:href="#m741efc42ff" y="43.2"/>
      </g>
     </g>
     <g id="text_7">
      <!-- 4.5 -->
      <g transform="translate(840.117730263 401.918125)scale(0.12 -0.12)">
       <use xlink:href="#DejaVuSans-34"/>
       <use x="63.623046875" xlink:href="#DejaVuSans-2e"/>
       <use x="95.41015625" xlink:href="#DejaVuSans-35"/>
      </g>
     </g>
    </g>
    <g id="xtick_8">
     <g id="line2d_16">
      <g>
       <use style="stroke:#000000;stroke-width:0.5;" x="966.315789474" xlink:href="#m93b0483c22" y="388.8"/>
      </g>
     </g>
     <g id="line2d_17">
      <g>
       <use style="stroke:#000000;stroke-width:0.5;" x="966.315789474" xlink:href="#m741efc42ff" y="43.2"/>
      </g>
     </g>
     <g id="text_8">
      <!-- 5.0 -->
      <g transform="translate(957.635476974 401.918125)scale(0.12 -0.12)">
       <use xlink:href="#DejaVuSans-35"/>
       <use x="63.623046875" xlink:href="#DejaVuSans-2e"/>
       <use x="95.41015625" xlink:href="#DejaVuSans-30"/>
      </g>
     </g>
    </g>
    <g id="text_9">
     <!-- Chromosome position -->
     <defs>
      <path d="
M54.8906 33.0156
L54.8906 0
L45.9062 0
L45.9062 32.7188
Q45.9062 40.4844 42.875 44.3281
Q39.8438 48.1875 33.7969 48.1875
Q26.5156 48.1875 22.3125 43.5469
Q18.1094 38.9219 18.1094 30.9062
L18.1094 0
L9.07812 0
L9.07812 54.6875
L18.1094 54.6875
L18.1094 46.1875
Q21.3438 51.125 25.7031 53.5625
Q30.0781 56 35.7969 56
Q45.2188 56 50.0469 50.1719
Q54.8906 44.3438 54.8906 33.0156" id="DejaVuSans-6e"/>
      <path d="
M30.6094 48.3906
Q23.3906 48.3906 19.1875 42.75
Q14.9844 37.1094 14.9844 27.2969
Q14.9844 17.4844 19.1562 11.8438
Q23.3438 6.20312 30.6094 6.20312
Q37.7969 6.20312 41.9844 11.8594
Q46.1875 17.5312 46.1875 27.2969
Q46.1875 37.0156 41.9844 42.7031
Q37.7969 48.3906 30.6094 48.3906
M30.6094 56
Q42.3281 56 49.0156 48.375
Q55.7188 40.7656 55.7188 27.2969
Q55.7188 13.875 49.0156 6.21875
Q42.3281 -1.42188 30.6094 -1.42188
Q18.8438 -1.42188 12.1719 6.21875
Q5.51562 13.875 5.51562 27.2969
Q5.51562 40.7656 12.1719 48.375
Q18.8438 56 30.6094 56" id="DejaVuSans-6f"/>
      <path d="
M52 44.1875
Q55.375 50.25 60.0625 53.125
Q64.75 56 71.0938 56
Q79.6406 56 84.2812 50.0156
Q88.9219 44.0469 88.9219 33.0156
L88.9219 0
L79.8906 0
L79.8906 32.7188
Q79.8906 40.5781 77.0938 44.375
Q74.3125 48.1875 68.6094 48.1875
Q61.625 48.1875 57.5625 43.5469
Q53.5156 38.9219 53.5156 30.9062
L53.5156 0
L44.4844 0
L44.4844 32.7188
Q44.4844 40.625 41.7031 44.4062
Q38.9219 48.1875 33.1094 48.1875
Q26.2188 48.1875 22.1562 43.5312
Q18.1094 38.875 18.1094 30.9062
L18.1094 0
L9.07812 0
L9.07812 54.6875
L18.1094 54.6875
L18.1094 46.1875
Q21.1875 51.2188 25.4844 53.6094
Q29.7812 56 35.6875 56
Q41.6562 56 45.8281 52.9688
Q50 49.9531 52 44.1875" id="DejaVuSans-6d"/>
      <path d="
M9.42188 54.6875
L18.4062 54.6875
L18.4062 0
L9.42188 0
z

M9.42188 75.9844
L18.4062 75.9844
L18.4062 64.5938
L9.42188 64.5938
z
" id="DejaVuSans-69"/>
      <path id="DejaVuSans-20"/>
      <path d="
M54.8906 33.0156
L54.8906 0
L45.9062 0
L45.9062 32.7188
Q45.9062 40.4844 42.875 44.3281
Q39.8438 48.1875 33.7969 48.1875
Q26.5156 48.1875 22.3125 43.5469
Q18.1094 38.9219 18.1094 30.9062
L18.1094 0
L9.07812 0
L9.07812 75.9844
L18.1094 75.9844
L18.1094 46.1875
Q21.3438 51.125 25.7031 53.5625
Q30.0781 56 35.7969 56
Q45.2188 56 50.0469 50.1719
Q54.8906 44.3438 54.8906 33.0156" id="DejaVuSans-68"/>
      <path d="
M64.4062 67.2812
L64.4062 56.8906
Q59.4219 61.5312 53.7812 63.8125
Q48.1406 66.1094 41.7969 66.1094
Q29.2969 66.1094 22.6562 58.4688
Q16.0156 50.8281 16.0156 36.375
Q16.0156 21.9688 22.6562 14.3281
Q29.2969 6.6875 41.7969 6.6875
Q48.1406 6.6875 53.7812 8.98438
Q59.4219 11.2812 64.4062 15.9219
L64.4062 5.60938
Q59.2344 2.09375 53.4375 0.328125
Q47.6562 -1.42188 41.2188 -1.42188
Q24.6562 -1.42188 15.125 8.70312
Q5.60938 18.8438 5.60938 36.375
Q5.60938 53.9531 15.125 64.0781
Q24.6562 74.2188 41.2188 74.2188
Q47.75 74.2188 53.5312 72.4844
Q59.3281 70.75 64.4062 67.2812" id="DejaVuSans-43"/>
      <path d="
M18.3125 70.2188
L18.3125 54.6875
L36.8125 54.6875
L36.8125 47.7031
L18.3125 47.7031
L18.3125 18.0156
Q18.3125 11.3281 20.1406 9.42188
Q21.9688 7.51562 27.5938 7.51562
L36.8125 7.51562
L36.8125 0
L27.5938 0
Q17.1875 0 13.2344 3.875
Q9.28125 7.76562 9.28125 18.0156
L9.28125 47.7031
L2.6875 47.7031
L2.6875 54.6875
L9.28125 54.6875
L9.28125 70.2188
z
" id="DejaVuSans-74"/>
      <path d="
M56.2031 29.5938
L56.2031 25.2031
L14.8906 25.2031
Q15.4844 15.9219 20.4844 11.0625
Q25.4844 6.20312 34.4219 6.20312
Q39.5938 6.20312 44.4531 7.46875
Q49.3125 8.73438 54.1094 11.2812
L54.1094 2.78125
Q49.2656 0.734375 44.1875 -0.34375
Q39.1094 -1.42188 33.8906 -1.42188
Q20.7969 -1.42188 13.1562 6.1875
Q5.51562 13.8125 5.51562 26.8125
Q5.51562 40.2344 12.7656 48.1094
Q20.0156 56 32.3281 56
Q43.3594 56 49.7812 48.8906
Q56.2031 41.7969 56.2031 29.5938
M47.2188 32.2344
Q47.125 39.5938 43.0938 43.9844
Q39.0625 48.3906 32.4219 48.3906
Q24.9062 48.3906 20.3906 44.1406
Q15.875 39.8906 15.1875 32.1719
z
" id="DejaVuSans-65"/>
      <path d="
M18.1094 8.20312
L18.1094 -20.7969
L9.07812 -20.7969
L9.07812 54.6875
L18.1094 54.6875
L18.1094 46.3906
Q20.9531 51.2656 25.2656 53.625
Q29.5938 56 35.5938 56
Q45.5625 56 51.7812 48.0938
Q58.0156 40.1875 58.0156 27.2969
Q58.0156 14.4062 51.7812 6.48438
Q45.5625 -1.42188 35.5938 -1.42188
Q29.5938 -1.42188 25.2656 0.953125
Q20.9531 3.32812 18.1094 8.20312
M48.6875 27.2969
Q48.6875 37.2031 44.6094 42.8438
Q40.5312 48.4844 33.4062 48.4844
Q26.2656 48.4844 22.1875 42.8438
Q18.1094 37.2031 18.1094 27.2969
Q18.1094 17.3906 22.1875 11.75
Q26.2656 6.10938 33.4062 6.10938
Q40.5312 6.10938 44.6094 11.75
Q48.6875 17.3906 48.6875 27.2969" id="DejaVuSans-70"/>
      <path d="
M44.2812 53.0781
L44.2812 44.5781
Q40.4844 46.5312 36.375 47.5
Q32.2812 48.4844 27.875 48.4844
Q21.1875 48.4844 17.8438 46.4375
Q14.5 44.3906 14.5 40.2812
Q14.5 37.1562 16.8906 35.375
Q19.2812 33.5938 26.5156 31.9844
L29.5938 31.2969
Q39.1562 29.25 43.1875 25.5156
Q47.2188 21.7812 47.2188 15.0938
Q47.2188 7.46875 41.1875 3.01562
Q35.1562 -1.42188 24.6094 -1.42188
Q20.2188 -1.42188 15.4531 -0.5625
Q10.6875 0.296875 5.42188 2
L5.42188 11.2812
Q10.4062 8.6875 15.2344 7.39062
Q20.0625 6.10938 24.8125 6.10938
Q31.1562 6.10938 34.5625 8.28125
Q37.9844 10.4531 37.9844 14.4062
Q37.9844 18.0625 35.5156 20.0156
Q33.0625 21.9688 24.7031 23.7812
L21.5781 24.5156
Q13.2344 26.2656 9.51562 29.9062
Q5.8125 33.5469 5.8125 39.8906
Q5.8125 47.6094 11.2812 51.7969
Q16.75 56 26.8125 56
Q31.7812 56 36.1719 55.2656
Q40.5781 54.5469 44.2812 53.0781" id="DejaVuSans-73"/>
      <path d="
M41.1094 46.2969
Q39.5938 47.1719 37.8125 47.5781
Q36.0312 48 33.8906 48
Q26.2656 48 22.1875 43.0469
Q18.1094 38.0938 18.1094 28.8125
L18.1094 0
L9.07812 0
L9.07812 54.6875
L18.1094 54.6875
L18.1094 46.1875
Q20.9531 51.1719 25.4844 53.5781
Q30.0312 56 36.5312 56
Q37.4531 56 38.5781 55.875
Q39.7031 55.7656 41.0625 55.5156
z
" id="DejaVuSans-72"/>
     </defs>
     <g transform="translate(525.3928125 418.531875)scale(0.12 -0.12)">
      <use xlink:href="#DejaVuSans-43"/>
      <use x="69.82421875" xlink:href="#DejaVuSans-68"/>
      <use x="133.203125" xlink:href="#DejaVuSans-72"/>
      <use x="172.06640625" xlink:href="#DejaVuSans-6f"/>
      <use x="233.248046875" xlink:href="#DejaVuSans-6d"/>
      <use x="330.66015625" xlink:href="#DejaVuSans-6f"/>
      <use x="391.841796875" xlink:href="#DejaVuSans-73"/>
      <use x="443.94140625" xlink:href="#DejaVuSans-6f"/>
      <use x="505.123046875" xlink:href="#DejaVuSans-6d"/>
      <use x="602.53515625" xlink:href="#DejaVuSans-65"/>
      <use x="664.05859375" xlink:href="#DejaVuSans-20"/>
      <use x="695.845703125" xlink:href="#DejaVuSans-70"/>
      <use x="759.322265625" xlink:href="#DejaVuSans-6f"/>
      <use x="820.50390625" xlink:href="#DejaVuSans-73"/>
      <use x="872.603515625" xlink:href="#DejaVuSans-69"/>
      <use x="900.38671875" xlink:href="#DejaVuSans-74"/>
      <use x="939.595703125" xlink:href="#DejaVuSans-69"/>
      <use x="967.37890625" xlink:href="#DejaVuSans-6f"/>
      <use x="1028.56054688" xlink:href="#DejaVuSans-6e"/>
     </g>
    </g>
    <g id="text_10">
     <!-- 1e7 -->
     <defs>
      <path d="
M8.20312 72.9062
L55.0781 72.9062
L55.0781 68.7031
L28.6094 0
L18.3125 0
L43.2188 64.5938
L8.20312 64.5938
z
" id="DejaVuSans-37"/>
     </defs>
     <g transform="translate(1016.49 416.531875)scale(0.12 -0.12)">
      <use xlink:href="#DejaVuSans-31"/>
      <use x="63.623046875" xlink:href="#DejaVuSans-65"/>
      <use x="125.146484375" xlink:href="#DejaVuSans-37"/>
     </g>
    </g>
   </g>
   <g id="matplotlib.axis_2">
    <g id="ytick_1">
     <g id="line2d_18">
      <defs>
       <path d="
M0 0
L4 0" id="m728421d6d4" style="stroke:#000000;stroke-width:0.5;"/>
      </defs>
      <g>
       <use style="stroke:#000000;stroke-width:0.5;" x="144.0" xlink:href="#m728421d6d4" y="388.8"/>
      </g>
     </g>
     <g id="text_11">
      <!-- 0.0 -->
      <g transform="translate(122.504375 392.11125)scale(0.12 -0.12)">
       <use xlink:href="#DejaVuSans-30"/>
       <use x="63.623046875" xlink:href="#DejaVuSans-2e"/>
       <use x="95.41015625" xlink:href="#DejaVuSans-30"/>
      </g>
     </g>
    </g>
    <g id="ytick_2">
     <g id="line2d_19">
      <g>
       <use style="stroke:#000000;stroke-width:0.5;" x="144.0" xlink:href="#m728421d6d4" y="350.4"/>
      </g>
     </g>
     <g id="text_12">
      <!-- 0.2 -->
      <g transform="translate(122.909375 353.71125)scale(0.12 -0.12)">
       <use xlink:href="#DejaVuSans-30"/>
       <use x="63.623046875" xlink:href="#DejaVuSans-2e"/>
       <use x="95.41015625" xlink:href="#DejaVuSans-32"/>
      </g>
     </g>
    </g>
    <g id="ytick_3">
     <g id="line2d_20">
      <g>
       <use style="stroke:#000000;stroke-width:0.5;" x="144.0" xlink:href="#m728421d6d4" y="312.0"/>
      </g>
     </g>
     <g id="text_13">
      <!-- 0.4 -->
      <g transform="translate(122.380625 315.31125)scale(0.12 -0.12)">
       <use xlink:href="#DejaVuSans-30"/>
       <use x="63.623046875" xlink:href="#DejaVuSans-2e"/>
       <use x="95.41015625" xlink:href="#DejaVuSans-34"/>
      </g>
     </g>
    </g>
    <g id="ytick_4">
     <g id="line2d_21">
      <g>
       <use style="stroke:#000000;stroke-width:0.5;" x="144.0" xlink:href="#m728421d6d4" y="273.6"/>
      </g>
     </g>
     <g id="text_14">
      <!-- 0.6 -->
      <defs>
       <path d="
M33.0156 40.375
Q26.375 40.375 22.4844 35.8281
Q18.6094 31.2969 18.6094 23.3906
Q18.6094 15.5312 22.4844 10.9531
Q26.375 6.39062 33.0156 6.39062
Q39.6562 6.39062 43.5312 10.9531
Q47.4062 15.5312 47.4062 23.3906
Q47.4062 31.2969 43.5312 35.8281
Q39.6562 40.375 33.0156 40.375
M52.5938 71.2969
L52.5938 62.3125
Q48.875 64.0625 45.0938 64.9844
Q41.3125 65.9219 37.5938 65.9219
Q27.8281 65.9219 22.6719 59.3281
Q17.5312 52.7344 16.7969 39.4062
Q19.6719 43.6562 24.0156 45.9219
Q28.375 48.1875 33.5938 48.1875
Q44.5781 48.1875 50.9531 41.5156
Q57.3281 34.8594 57.3281 23.3906
Q57.3281 12.1562 50.6875 5.35938
Q44.0469 -1.42188 33.0156 -1.42188
Q20.3594 -1.42188 13.6719 8.26562
Q6.98438 17.9688 6.98438 36.375
Q6.98438 53.6562 15.1875 63.9375
Q23.3906 74.2188 37.2031 74.2188
Q40.9219 74.2188 44.7031 73.4844
Q48.4844 72.75 52.5938 71.2969" id="DejaVuSans-36"/>
      </defs>
      <g transform="translate(122.463125 276.91125)scale(0.12 -0.12)">
       <use xlink:href="#DejaVuSans-30"/>
       <use x="63.623046875" xlink:href="#DejaVuSans-2e"/>
       <use x="95.41015625" xlink:href="#DejaVuSans-36"/>
      </g>
     </g>
    </g>
    <g id="ytick_5">
     <g id="line2d_22">
      <g>
       <use style="stroke:#000000;stroke-width:0.5;" x="144.0" xlink:href="#m728421d6d4" y="235.2"/>
      </g>
     </g>
     <g id="text_15">
      <!-- 0.8 -->
      <defs>
       <path d="
M31.7812 34.625
Q24.75 34.625 20.7188 30.8594
Q16.7031 27.0938 16.7031 20.5156
Q16.7031 13.9219 20.7188 10.1562
Q24.75 6.39062 31.7812 6.39062
Q38.8125 6.39062 42.8594 10.1719
Q46.9219 13.9688 46.9219 20.5156
Q46.9219 27.0938 42.8906 30.8594
Q38.875 34.625 31.7812 34.625
M21.9219 38.8125
Q15.5781 40.375 12.0312 44.7188
Q8.5 49.0781 8.5 55.3281
Q8.5 64.0625 14.7188 69.1406
Q20.9531 74.2188 31.7812 74.2188
Q42.6719 74.2188 48.875 69.1406
Q55.0781 64.0625 55.0781 55.3281
Q55.0781 49.0781 51.5312 44.7188
Q48 40.375 41.7031 38.8125
Q48.8281 37.1562 52.7969 32.3125
Q56.7812 27.4844 56.7812 20.5156
Q56.7812 9.90625 50.3125 4.23438
Q43.8438 -1.42188 31.7812 -1.42188
Q19.7344 -1.42188 13.25 4.23438
Q6.78125 9.90625 6.78125 20.5156
Q6.78125 27.4844 10.7812 32.3125
Q14.7969 37.1562 21.9219 38.8125
M18.3125 54.3906
Q18.3125 48.7344 21.8438 45.5625
Q25.3906 42.3906 31.7812 42.3906
Q38.1406 42.3906 41.7188 45.5625
Q45.3125 48.7344 45.3125 54.3906
Q45.3125 60.0625 41.7188 63.2344
Q38.1406 66.4062 31.7812 66.4062
Q25.3906 66.4062 21.8438 63.2344
Q18.3125 60.0625 18.3125 54.3906" id="DejaVuSans-38"/>
      </defs>
      <g transform="translate(122.52875 238.51125)scale(0.12 -0.12)">
       <use xlink:href="#DejaVuSans-30"/>
       <use x="63.623046875" xlink:href="#DejaVuSans-2e"/>
       <use x="95.41015625" xlink:href="#DejaVuSans-38"/>
      </g>
     </g>
    </g>
    <g id="ytick_6">
     <g id="line2d_23">
      <g>
       <use style="stroke:#000000;stroke-width:0.5;" x="144.0" xlink:href="#m728421d6d4" y="196.8"/>
      </g>
     </g>
     <g id="text_16">
      <!-- 1.0 -->
      <g transform="translate(123.03125 200.11125)scale(0.12 -0.12)">
       <use xlink:href="#DejaVuSans-31"/>
       <use x="63.623046875" xlink:href="#DejaVuSans-2e"/>
       <use x="95.41015625" xlink:href="#DejaVuSans-30"/>
      </g>
     </g>
    </g>
    <g id="ytick_7">
     <g id="line2d_24">
      <g>
       <use style="stroke:#000000;stroke-width:0.5;" x="144.0" xlink:href="#m728421d6d4" y="158.4"/>
      </g>
     </g>
     <g id="text_17">
      <!-- 1.2 -->
      <g transform="translate(123.43625 161.71125)scale(0.12 -0.12)">
       <use xlink:href="#DejaVuSans-31"/>
       <use x="63.623046875" xlink:href="#DejaVuSans-2e"/>
       <use x="95.41015625" xlink:href="#DejaVuSans-32"/>
      </g>
     </g>
    </g>
    <g id="ytick_8">
     <g id="line2d_25">
      <g>
       <use style="stroke:#000000;stroke-width:0.5;" x="144.0" xlink:href="#m728421d6d4" y="120.0"/>
      </g>
     </g>
     <g id="text_18">
      <!-- 1.4 -->
      <g transform="translate(122.9075 123.31125)scale(0.12 -0.12)">
       <use xlink:href="#DejaVuSans-31"/>
       <use x="63.623046875" xlink:href="#DejaVuSans-2e"/>
       <use x="95.41015625" xlink:href="#DejaVuSans-34"/>
      </g>
     </g>
    </g>
    <g id="ytick_9">
     <g id="line2d_26">
      <g>
       <use style="stroke:#000000;stroke-width:0.5;" x="144.0" xlink:href="#m728421d6d4" y="81.6"/>
      </g>
     </g>
     <g id="text_19">
      <!-- 1.6 -->
      <g transform="translate(122.99 84.91125)scale(0.12 -0.12)">
       <use xlink:href="#DejaVuSans-31"/>
       <use x="63.623046875" xlink:href="#DejaVuSans-2e"/>
       <use x="95.41015625" xlink:href="#DejaVuSans-36"/>
      </g>
     </g>
    </g>
    <g id="ytick_10">
     <g id="line2d_27">
      <g>
       <use style="stroke:#000000;stroke-width:0.5;" x="144.0" xlink:href="#m728421d6d4" y="43.2"/>
      </g>
     </g>
     <g id="text_20">
      <!-- 1.8 -->
      <g transform="translate(123.055625 46.51125)scale(0.12 -0.12)">
       <use xlink:href="#DejaVuSans-31"/>
       <use x="63.623046875" xlink:href="#DejaVuSans-2e"/>
       <use x="95.41015625" xlink:href="#DejaVuSans-38"/>
      </g>
     </g>
    </g>
    <g id="text_21">
     <!-- Recombination rate -->
     <defs>
      <path d="
M44.3906 34.1875
Q47.5625 33.1094 50.5625 29.5938
Q53.5625 26.0781 56.5938 19.9219
L66.6094 0
L56 0
L46.6875 18.7031
Q43.0625 26.0312 39.6719 28.4219
Q36.2812 30.8125 30.4219 30.8125
L19.6719 30.8125
L19.6719 0
L9.8125 0
L9.8125 72.9062
L32.0781 72.9062
Q44.5781 72.9062 50.7344 67.6719
Q56.8906 62.4531 56.8906 51.9062
Q56.8906 45.0156 53.6875 40.4688
Q50.4844 35.9375 44.3906 34.1875
M19.6719 64.7969
L19.6719 38.9219
L32.0781 38.9219
Q39.2031 38.9219 42.8438 42.2188
Q46.4844 45.5156 46.4844 51.9062
Q46.4844 58.2969 42.8438 61.5469
Q39.2031 64.7969 32.0781 64.7969
z
" id="DejaVuSans-52"/>
      <path d="
M48.6875 27.2969
Q48.6875 37.2031 44.6094 42.8438
Q40.5312 48.4844 33.4062 48.4844
Q26.2656 48.4844 22.1875 42.8438
Q18.1094 37.2031 18.1094 27.2969
Q18.1094 17.3906 22.1875 11.75
Q26.2656 6.10938 33.4062 6.10938
Q40.5312 6.10938 44.6094 11.75
Q48.6875 17.3906 48.6875 27.2969
M18.1094 46.3906
Q20.9531 51.2656 25.2656 53.625
Q29.5938 56 35.5938 56
Q45.5625 56 51.7812 48.0938
Q58.0156 40.1875 58.0156 27.2969
Q58.0156 14.4062 51.7812 6.48438
Q45.5625 -1.42188 35.5938 -1.42188
Q29.5938 -1.42188 25.2656 0.953125
Q20.9531 3.32812 18.1094 8.20312
L18.1094 0
L9.07812 0
L9.07812 75.9844
L18.1094 75.9844
z
" id="DejaVuSans-62"/>
      <path d="
M48.7812 52.5938
L48.7812 44.1875
Q44.9688 46.2969 41.1406 47.3438
Q37.3125 48.3906 33.4062 48.3906
Q24.6562 48.3906 19.8125 42.8438
Q14.9844 37.3125 14.9844 27.2969
Q14.9844 17.2812 19.8125 11.7344
Q24.6562 6.20312 33.4062 6.20312
Q37.3125 6.20312 41.1406 7.25
Q44.9688 8.29688 48.7812 10.4062
L48.7812 2.09375
Q45.0156 0.34375 40.9844 -0.53125
Q36.9688 -1.42188 32.4219 -1.42188
Q20.0625 -1.42188 12.7812 6.34375
Q5.51562 14.1094 5.51562 27.2969
Q5.51562 40.6719 12.8594 48.3281
Q20.2188 56 33.0156 56
Q37.1562 56 41.1094 55.1406
Q45.0625 54.2969 48.7812 52.5938" id="DejaVuSans-63"/>
      <path d="
M34.2812 27.4844
Q23.3906 27.4844 19.1875 25
Q14.9844 22.5156 14.9844 16.5
Q14.9844 11.7188 18.1406 8.90625
Q21.2969 6.10938 26.7031 6.10938
Q34.1875 6.10938 38.7031 11.4062
Q43.2188 16.7031 43.2188 25.4844
L43.2188 27.4844
z

M52.2031 31.2031
L52.2031 0
L43.2188 0
L43.2188 8.29688
Q40.1406 3.32812 35.5469 0.953125
Q30.9531 -1.42188 24.3125 -1.42188
Q15.9219 -1.42188 10.9531 3.29688
Q6 8.01562 6 15.9219
Q6 25.1406 12.1719 29.8281
Q18.3594 34.5156 30.6094 34.5156
L43.2188 34.5156
L43.2188 35.4062
Q43.2188 41.6094 39.1406 45
Q35.0625 48.3906 27.6875 48.3906
Q23 48.3906 18.5469 47.2656
Q14.1094 46.1406 10.0156 43.8906
L10.0156 52.2031
Q14.9375 54.1094 19.5781 55.0469
Q24.2188 56 28.6094 56
Q40.4844 56 46.3438 49.8438
Q52.2031 43.7031 52.2031 31.2031" id="DejaVuSans-61"/>
     </defs>
     <g transform="translate(114.885 274.6284375)rotate(-90.0)scale(0.12 -0.12)">
      <use xlink:href="#DejaVuSans-52"/>
      <use x="64.982421875" xlink:href="#DejaVuSans-65"/>
      <use x="126.505859375" xlink:href="#DejaVuSans-63"/>
      <use x="181.486328125" xlink:href="#DejaVuSans-6f"/>
      <use x="242.66796875" xlink:href="#DejaVuSans-6d"/>
      <use x="340.080078125" xlink:href="#DejaVuSans-62"/>
      <use x="403.556640625" xlink:href="#DejaVuSans-69"/>
      <use x="431.33984375" xlink:href="#DejaVuSans-6e"/>
      <use x="494.71875" xlink:href="#DejaVuSans-61"/>
      <use x="555.998046875" xlink:href="#DejaVuSans-74"/>
      <use x="595.20703125" xlink:href="#DejaVuSans-69"/>
      <use x="622.990234375" xlink:href="#DejaVuSans-6f"/>
      <use x="684.171875" xlink:href="#DejaVuSans-6e"/>
      <use x="747.55078125" xlink:href="#DejaVuSans-20"/>
      <use x="779.337890625" xlink:href="#DejaVuSans-72"/>
      <use x="820.451171875" xlink:href="#DejaVuSans-61"/>
      <use x="881.73046875" xlink:href="#DejaVuSans-74"/>
      <use x="920.939453125" xlink:href="#DejaVuSans-65"/>
     </g>
    </g>
    <g id="text_22">
     <!-- 1e−7 -->
     <defs>
      <path d="
M10.5938 35.5
L73.1875 35.5
L73.1875 27.2031
L10.5938 27.2031
z
" id="DejaVuSans-2212"/>
     </defs>
     <g transform="translate(144.0 40.2)scale(0.12 -0.12)">
      <use xlink:href="#DejaVuSans-31"/>
      <use x="63.623046875" xlink:href="#DejaVuSans-65"/>
      <use x="125.146484375" xlink:href="#DejaVuSans-2212"/>
      <use x="208.935546875" xlink:href="#DejaVuSans-37"/>
     </g>
    </g>
   </g>
  </g>
  <g id="axes_2">
   <g id="line2d_28">
    <path clip-path="url(#pc66ef7dc0a)" d="
M143.039 388.8
L164.704 388.8
L167.112 338.202
L169.519 255.128
L171.926 250.104
L174.334 281.324
L176.741 379.829
L179.148 385.75
L183.963 365.116
L186.37 359.733
L188.777 373.19
L191.184 345.2
L193.592 335.69
L195.999 327.436
L198.406 263.92
L200.813 333.357
L203.221 257.101
L205.628 112.484
L208.035 86.2881
L210.442 237.006
L212.85 276.3
L215.257 320.977
L217.664 360.63
L220.072 242.568
L222.479 372.831
L224.886 252.257
L227.293 293.345
L229.701 158.956
L232.108 169.362
L234.515 266.97
L236.922 350.941
L239.33 293.704
L241.737 383.776
L244.144 378.214
L246.551 386.288
L248.959 352.197
L251.366 214.578
L253.773 209.195
L256.18 333.537
L258.588 323.848
L260.995 362.604
L263.402 347.353
L265.809 133.836
L268.217 271.456
L270.624 259.434
L273.031 291.731
L275.439 281.145
L277.846 257.46
L280.253 383.417
L282.66 145.678
L285.068 374.087
L287.475 387.903
L289.882 387.006
L292.289 145.319
L294.697 304.649
L297.104 380.008
L301.918 287.604
L304.326 354.53
L306.733 345.02
L309.14 365.833
L311.547 381.982
L313.955 380.367
L316.362 198.429
L318.769 335.869
L321.176 279.709
L323.584 309.135
L325.991 301.061
L328.398 235.212
L330.806 242.747
L333.213 279.889
L335.62 254.948
L338.027 298.19
L340.435 350.941
L342.842 376.778
L345.249 354.171
L347.656 263.561
L350.064 282.221
L352.471 182.999
L354.878 375.702
L357.285 354.171
L359.693 302.137
L362.1 380.905
L364.507 327.436
L366.914 387.185
L369.322 367.807
L371.729 385.929
L374.136 384.135
L376.544 343.405
L378.951 328.692
L381.358 358.477
L383.765 239.159
L386.173 351.838
L388.58 287.066
L390.987 346.456
L393.394 178.334
L395.802 355.606
L398.209 350.941
L400.616 311.467
L403.023 374.446
L407.838 233.058
L410.245 240.594
L412.652 247.233
L415.06 358.118
L417.467 263.561
L419.874 276.3
L422.281 353.812
L424.689 355.965
L427.096 320.977
L429.503 110.869
L431.911 293.166
L434.318 113.381
L436.725 241.671
L439.132 238.8
L441.54 234.673
L443.947 144.96
L446.354 247.412
L448.761 291.551
L451.169 249.566
L453.576 271.276
L455.983 383.776
L458.39 386.288
L460.798 386.109
L463.205 384.494
L465.612 387.185
L468.019 387.544
L470.427 388.262
L472.834 383.058
L475.241 382.341
L477.648 383.417
L480.056 381.982
L482.463 338.561
L484.87 356.503
L487.278 327.257
L489.685 375.164
L492.092 343.226
L494.499 385.57
L496.907 367.448
L499.314 378.752
L501.721 385.75
L504.128 385.032
L506.536 387.544
L508.943 367.089
L511.35 372.652
L513.757 376.778
L516.165 363.86
L518.572 329.051
L520.979 356.324
L523.386 376.061
L525.794 344.482
L528.201 335.869
L533.016 386.288
L535.423 386.467
L537.83 382.879
L540.237 386.467
L542.645 385.391
L545.052 384.853
L547.459 381.085
L549.866 349.147
L552.274 385.75
L554.681 359.912
L557.088 303.214
L559.495 353.453
L561.903 267.149
L564.31 231.444
L566.717 326.001
L569.124 327.975
L571.532 355.786
L573.939 376.958
L576.346 353.094
L578.753 264.099
L581.161 296.396
L583.568 289.757
L585.975 322.233
L588.383 327.436
L590.79 310.211
L593.197 368.166
L595.604 332.64
L598.012 325.822
L600.419 329.948
L602.826 368.525
L605.233 369.422
L607.641 354.35
L610.048 352.197
L612.455 343.585
L614.862 369.781
L617.27 375.881
L619.677 358.477
L622.084 305.188
L624.491 340.714
L626.899 374.267
L629.306 354.709
L631.713 230.726
L634.12 203.633
L636.528 333.357
L638.935 298.908
L641.342 386.826
L643.75 388.8
L646.157 367.448
L648.564 327.078
L650.971 215.295
L653.379 350.223
L655.786 376.42
L658.193 280.247
L660.6 268.944
L663.008 313.441
L665.415 262.484
L667.822 243.286
L670.229 335.511
L672.637 240.594
L675.044 269.841
L677.451 267.508
L679.858 317.389
L682.266 250.463
L684.673 367.628
L687.08 380.188
L689.488 386.467
L691.895 385.57
L694.302 334.972
L696.709 366.551
L699.117 289.757
L701.524 367.448
L703.931 330.128
L706.338 387.006
L708.746 386.826
L711.153 367.628
L713.56 246.515
L715.967 312.365
L718.375 358.477
L720.782 303.034
L723.189 325.104
L725.596 326.898
L728.004 337.843
L730.411 350.762
L732.818 281.862
L735.225 385.929
L737.633 366.192
L740.04 362.604
L742.447 363.142
L744.855 386.826
L747.262 370.14
L749.669 382.161
L752.076 386.467
L754.484 379.111
L756.891 384.673
L759.298 382.341
L761.705 385.391
L764.113 376.958
L766.52 386.467
L768.927 381.982
L771.334 380.726
L773.742 385.929
L776.149 383.238
L778.556 388.262
L780.963 384.135
L783.371 377.317
L785.778 378.214
L788.185 385.391
L790.593 385.032
L793 355.427
L795.407 361.527
L797.814 317.568
L800.222 373.549
L802.629 361.348
L805.036 346.276
L807.443 380.905
L809.851 371.037
L812.258 349.865
L814.665 271.814
L817.072 292.089
L819.48 335.511
L821.887 355.247
L824.294 379.29
L826.701 383.058
L829.109 380.008
L831.516 250.104
L833.923 248.13
L836.33 187.484
L838.738 316.312
L841.145 145.14
L843.552 276.659
L845.96 298.728
L848.367 282.58
L850.774 135.63
L853.181 274.147
L855.589 349.865
L857.996 189.996
L860.403 319.9
L862.81 264.458
L865.218 377.855
L867.625 257.281
L870.032 231.623
L872.439 357.759
L874.847 378.932
L877.254 341.073
L879.661 319.003
L882.068 282.58
L884.476 321.156
L886.883 368.166
L889.29 361.168
L891.697 208.298
L894.105 320.798
L896.512 314.697
L898.919 366.551
L901.327 337.125
L903.734 374.087
L906.141 311.288
L908.548 227.676
L910.956 282.4
L913.363 324.566
L915.77 323.489
L918.177 282.759
L920.585 370.319
L925.399 282.042
L927.806 312.365
L930.214 221.037
L932.621 272.891
L935.028 123.07
L937.435 268.046
L939.843 241.85
L942.25 81.8024
L944.657 273.967
L947.065 211.168
L949.472 221.396
L951.879 262.843
L954.286 185.152
L956.694 191.611
L959.101 183.178
L961.508 161.826
L963.915 285.271
L966.323 362.245
L968.73 299.625
L971.137 380.188
L973.544 327.257
L975.952 323.489
L978.359 370.678
L980.766 365.475
L983.173 357.58
L985.581 357.4
L987.988 314.159
L990.395 341.252
L992.802 346.456
L992.802 346.456" style="fill:none;stroke:#008000;stroke-linecap:square;"/>
   </g>
   <g id="patch_7">
    <path d="
M144 43.2
L1036.8 43.2" style="fill:none;stroke:#000000;stroke-linecap:square;stroke-linejoin:miter;"/>
   </g>
   <g id="patch_8">
    <path d="
M1036.8 388.8
L1036.8 43.2" style="fill:none;stroke:#000000;stroke-linecap:square;stroke-linejoin:miter;"/>
   </g>
   <g id="patch_9">
    <path d="
M144 388.8
L1036.8 388.8" style="fill:none;stroke:#000000;stroke-linecap:square;stroke-linejoin:miter;"/>
   </g>
   <g id="patch_10">
    <path d="
M144 388.8
L144 43.2" style="fill:none;stroke:#000000;stroke-linecap:square;stroke-linejoin:miter;"/>
   </g>
   <g id="matplotlib.axis_3">
    <g id="ytick_11">
     <g id="line2d_29">
      <defs>
       <path d="
M0 0
L-4 0" id="mcb0005524f" style="stroke:#000000;stroke-width:0.5;"/>
      </defs>
      <g>
       <use style="stroke:#000000;stroke-width:0.5;" x="1036.8" xlink:href="#mcb0005524f" y="388.8"/>
      </g>
     </g>
     <g id="text_23">
      <!-- 0.0 -->
      <g transform="translate(1040.8 392.11125)scale(0.12 -0.12)">
       <use xlink:href="#DejaVuSans-30"/>
       <use x="63.623046875" xlink:href="#DejaVuSans-2e"/>
       <use x="95.41015625" xlink:href="#DejaVuSans-30"/>
      </g>
     </g>
    </g>
    <g id="ytick_12">
     <g id="line2d_30">
      <g>
       <use style="stroke:#000000;stroke-width:0.5;" x="1036.8" xlink:href="#mcb0005524f" y="339.428571429"/>
      </g>
     </g>
     <g id="text_24">
      <!-- 0.2 -->
      <g transform="translate(1040.8 342.739821429)scale(0.12 -0.12)">
       <use xlink:href="#DejaVuSans-30"/>
       <use x="63.623046875" xlink:href="#DejaVuSans-2e"/>
       <use x="95.41015625" xlink:href="#DejaVuSans-32"/>
      </g>
     </g>
    </g>
    <g id="ytick_13">
     <g id="line2d_31">
      <g>
       <use style="stroke:#000000;stroke-width:0.5;" x="1036.8" xlink:href="#mcb0005524f" y="290.057142857"/>
      </g>
     </g>
     <g id="text_25">
      <!-- 0.4 -->
      <g transform="translate(1040.8 293.368392857)scale(0.12 -0.12)">
       <use xlink:href="#DejaVuSans-30"/>
       <use x="63.623046875" xlink:href="#DejaVuSans-2e"/>
       <use x="95.41015625" xlink:href="#DejaVuSans-34"/>
      </g>
     </g>
    </g>
    <g id="ytick_14">
     <g id="line2d_32">
      <g>
       <use style="stroke:#000000;stroke-width:0.5;" x="1036.8" xlink:href="#mcb0005524f" y="240.685714286"/>
      </g>
     </g>
     <g id="text_26">
      <!-- 0.6 -->
      <g transform="translate(1040.8 243.996964286)scale(0.12 -0.12)">
       <use xlink:href="#DejaVuSans-30"/>
       <use x="63.623046875" xlink:href="#DejaVuSans-2e"/>
       <use x="95.41015625" xlink:href="#DejaVuSans-36"/>
      </g>
     </g>
    </g>
    <g id="ytick_15">
     <g id="line2d_33">
      <g>
       <use style="stroke:#000000;stroke-width:0.5;" x="1036.8" xlink:href="#mcb0005524f" y="191.314285714"/>
      </g>
     </g>
     <g id="text_27">
      <!-- 0.8 -->
      <g transform="translate(1040.8 194.625535714)scale(0.12 -0.12)">
       <use xlink:href="#DejaVuSans-30"/>
       <use x="63.623046875" xlink:href="#DejaVuSans-2e"/>
       <use x="95.41015625" xlink:href="#DejaVuSans-38"/>
      </g>
     </g>
    </g>
    <g id="ytick_16">
     <g id="line2d_34">
      <g>
       <use style="stroke:#000000;stroke-width:0.5;" x="1036.8" xlink:href="#mcb0005524f" y="141.942857143"/>
      </g>
     </g>
     <g id="text_28">
      <!-- 1.0 -->
      <g transform="translate(1040.8 145.254107143)scale(0.12 -0.12)">
       <use xlink:href="#DejaVuSans-31"/>
       <use x="63.623046875" xlink:href="#DejaVuSans-2e"/>
       <use x="95.41015625" xlink:href="#DejaVuSans-30"/>
      </g>
     </g>
    </g>
    <g id="ytick_17">
     <g id="line2d_35">
      <g>
       <use style="stroke:#000000;stroke-width:0.5;" x="1036.8" xlink:href="#mcb0005524f" y="92.5714285714"/>
      </g>
     </g>
     <g id="text_29">
      <!-- 1.2 -->
      <g transform="translate(1040.8 95.8826785714)scale(0.12 -0.12)">
       <use xlink:href="#DejaVuSans-31"/>
       <use x="63.623046875" xlink:href="#DejaVuSans-2e"/>
       <use x="95.41015625" xlink:href="#DejaVuSans-32"/>
      </g>
     </g>
    </g>
    <g id="ytick_18">
     <g id="line2d_36">
      <g>
       <use style="stroke:#000000;stroke-width:0.5;" x="1036.8" xlink:href="#mcb0005524f" y="43.2"/>
      </g>
     </g>
     <g id="text_30">
      <!-- 1.4 -->
      <g transform="translate(1040.8 46.51125)scale(0.12 -0.12)">
       <use xlink:href="#DejaVuSans-31"/>
       <use x="63.623046875" xlink:href="#DejaVuSans-2e"/>
       <use x="95.41015625" xlink:href="#DejaVuSans-34"/>
      </g>
     </g>
    </g>
    <g id="text_31">
     <!-- Breakpoint density -->
     <defs>
      <path d="
M32.1719 -5.07812
Q28.375 -14.8438 24.75 -17.8125
Q21.1406 -20.7969 15.0938 -20.7969
L7.90625 -20.7969
L7.90625 -13.2812
L13.1875 -13.2812
Q16.8906 -13.2812 18.9375 -11.5156
Q21 -9.76562 23.4844 -3.21875
L25.0938 0.875
L2.98438 54.6875
L12.5 54.6875
L29.5938 11.9219
L46.6875 54.6875
L56.2031 54.6875
z
" id="DejaVuSans-79"/>
      <path d="
M45.4062 46.3906
L45.4062 75.9844
L54.3906 75.9844
L54.3906 0
L45.4062 0
L45.4062 8.20312
Q42.5781 3.32812 38.25 0.953125
Q33.9375 -1.42188 27.875 -1.42188
Q17.9688 -1.42188 11.7344 6.48438
Q5.51562 14.4062 5.51562 27.2969
Q5.51562 40.1875 11.7344 48.0938
Q17.9688 56 27.875 56
Q33.9375 56 38.25 53.625
Q42.5781 51.2656 45.4062 46.3906
M14.7969 27.2969
Q14.7969 17.3906 18.875 11.75
Q22.9531 6.10938 30.0781 6.10938
Q37.2031 6.10938 41.2969 11.75
Q45.4062 17.3906 45.4062 27.2969
Q45.4062 37.2031 41.2969 42.8438
Q37.2031 48.4844 30.0781 48.4844
Q22.9531 48.4844 18.875 42.8438
Q14.7969 37.2031 14.7969 27.2969" id="DejaVuSans-64"/>
      <path d="
M9.07812 75.9844
L18.1094 75.9844
L18.1094 31.1094
L44.9219 54.6875
L56.3906 54.6875
L27.3906 29.1094
L57.625 0
L45.9062 0
L18.1094 26.7031
L18.1094 0
L9.07812 0
z
" id="DejaVuSans-6b"/>
      <path d="
M19.6719 34.8125
L19.6719 8.10938
L35.5 8.10938
Q43.4531 8.10938 47.2812 11.4062
Q51.125 14.7031 51.125 21.4844
Q51.125 28.3281 47.2812 31.5625
Q43.4531 34.8125 35.5 34.8125
z

M19.6719 64.7969
L19.6719 42.8281
L34.2812 42.8281
Q41.5 42.8281 45.0312 45.5312
Q48.5781 48.25 48.5781 53.8125
Q48.5781 59.3281 45.0312 62.0625
Q41.5 64.7969 34.2812 64.7969
z

M9.8125 72.9062
L35.0156 72.9062
Q46.2969 72.9062 52.3906 68.2188
Q58.5 63.5312 58.5 54.8906
Q58.5 48.1875 55.375 44.2344
Q52.25 40.2812 46.1875 39.3125
Q53.4688 37.75 57.5 32.7812
Q61.5312 27.8281 61.5312 20.4062
Q61.5312 10.6406 54.8906 5.3125
Q48.25 0 35.9844 0
L9.8125 0
z
" id="DejaVuSans-42"/>
     </defs>
     <g transform="translate(1072.5375 272.3203125)rotate(-90.0)scale(0.12 -0.12)">
      <use xlink:href="#DejaVuSans-42"/>
      <use x="68.603515625" xlink:href="#DejaVuSans-72"/>
      <use x="107.466796875" xlink:href="#DejaVuSans-65"/>
      <use x="168.990234375" xlink:href="#DejaVuSans-61"/>
      <use x="230.26953125" xlink:href="#DejaVuSans-6b"/>
      <use x="288.1796875" xlink:href="#DejaVuSans-70"/>
      <use x="351.65625" xlink:href="#DejaVuSans-6f"/>
      <use x="412.837890625" xlink:href="#DejaVuSans-69"/>
      <use x="440.62109375" xlink:href="#DejaVuSans-6e"/>
      <use x="504.0" xlink:href="#DejaVuSans-74"/>
      <use x="543.208984375" xlink:href="#DejaVuSans-20"/>
      <use x="574.99609375" xlink:href="#DejaVuSans-64"/>
      <use x="638.47265625" xlink:href="#DejaVuSans-65"/>
      <use x="699.99609375" xlink:href="#DejaVuSans-6e"/>
      <use x="763.375" xlink:href="#DejaVuSans-73"/>
      <use x="815.474609375" xlink:href="#DejaVuSans-69"/>
      <use x="843.2578125" xlink:href="#DejaVuSans-74"/>
      <use x="882.466796875" xlink:href="#DejaVuSans-79"/>
     </g>
    </g>
    <g id="text_32">
     <!-- 1e−7 -->
     <g transform="translate(1006.434375 40.2)scale(0.12 -0.12)">
      <use xlink:href="#DejaVuSans-31"/>
      <use x="63.623046875" xlink:href="#DejaVuSans-65"/>
      <use x="125.146484375" xlink:href="#DejaVuSans-2212"/>
      <use x="208.935546875" xlink:href="#DejaVuSans-37"/>
     </g>
    </g>
   </g>
  </g>
 </g>
 <defs>
  <clipPath id="pc66ef7dc0a">
   <rect height="345.6" width="892.8" x="144.0" y="43.2"/>
  </clipPath>
 </defs>
</svg>
