<?xml version="1.0" encoding="utf-8" ?>
<svg baseProfile="full" height="200" version="1.1" width="200" xmlns="http://www.w3.org/2000/svg" xmlns:ev="http://www.w3.org/2001/xml-events" xmlns:xlink="http://www.w3.org/1999/xlink"><defs /><g id="lines" stroke="black"><line x1="28.5714285714" x2="64.2857142857" y1="180.0" y2="20.0" /><line x1="100.0" x2="64.2857142857" y1="155.820247217" y2="20.0" /><line x1="71.4285714286" x2="100.0" y1="171.030716915" y2="155.820247217" /><line x1="57.1428571429" x2="71.4285714286" y1="180.0" y2="171.030716915" /><line x1="85.7142857143" x2="71.4285714286" y1="180.0" y2="171.030716915" /><line x1="128.571428571" x2="100.0" y1="169.008799758" y2="155.820247217" /><line x1="114.285714286" x2="128.571428571" y1="180.0" y2="169.008799758" /><line x1="142.857142857" x2="128.571428571" y1="180.0" y2="169.008799758" /></g><g font-size="14"><text dx="0" dy="-5" x="64.2857142857" y="20.0">10</text><text dx="-4" dy="20" x="28.5714285714" y="180.0">4</text><text dx="-20" x="100.0" y="155.820247217">8</text><text dx="-20" x="71.4285714286" y="171.030716915">6</text><text dx="-4" dy="20" x="57.1428571429" y="180.0">2</text><text dx="-4" dy="20" x="85.7142857143" y="180.0">5</text><text dx="-20" x="128.571428571" y="169.008799758">7</text><text dx="-4" dy="20" x="114.285714286" y="180.0">1</text><text dx="-4" dy="20" x="142.857142857" y="180.0">3</text></g><circle cx="64.2857142857" cy="20.0" r="3" /><circle cx="28.5714285714" cy="180.0" r="3" /><circle cx="100.0" cy="155.820247217" r="3" /><circle cx="71.4285714286" cy="171.030716915" r="3" /><circle cx="57.1428571429" cy="180.0" r="3" /><circle cx="85.7142857143" cy="180.0" r="3" /><circle cx="128.571428571" cy="169.008799758" r="3" /><circle cx="114.285714286" cy="180.0" r="3" /><circle cx="142.857142857" cy="180.0" r="3" /><rect fill="red" height="6" width="6" x="82.1428571429" y="87.9101236083" /></svg>