<?xml version="1.0" encoding="utf-8"?>
<!-- Generator: Adobe Illustrator 16.0.0, SVG Export Plug-In . SVG Version: 6.00 Build 0)  -->
<!DOCTYPE svg PUBLIC "-//W3C//DTD SVG 1.1//EN" "http://www.w3.org/Graphics/SVG/1.1/DTD/svg11.dtd">
<svg version="1.1" id="Layer_1" xmlns="http://www.w3.org/2000/svg" xmlns:xlink="http://www.w3.org/1999/xlink" x="0px" y="0px"
	 width="400px" height="322px" viewBox="0 0 400 322" enable-background="new 0 0 400 322" xml:space="preserve">
<polyline fill="none" stroke="#000000" stroke-width="3" stroke-miterlimit="10" points="321,214.999 169.625,214.999 
	169.625,139.999 "/>
<polyline fill="none" stroke="#000000" stroke-width="3" stroke-miterlimit="10" points="321,315 4.17,315 4.17,227.502 "/>
<line fill="none" stroke="#000000" stroke-width="3" stroke-miterlimit="10" x1="1" y1="227.502" x2="4.17" y2="227.502"/>
<polyline fill="none" stroke="#000000" stroke-width="3" stroke-miterlimit="10" points="169.625,139.999 4.17,139.999 
	4.17,227.502 "/>
<polyline fill="none" stroke="#000000" stroke-width="3" stroke-miterlimit="10" points="222.428,64.999 169.625,64.999 
	169.625,139.999 "/>
<polyline fill="none" stroke="#000000" stroke-width="3" stroke-miterlimit="10" points="321,115.002 222.428,115.002 
	222.428,64.999 "/>
<polyline fill="none" stroke="#000000" stroke-width="3" stroke-miterlimit="10" points="321,15 222.428,15 222.428,64.999 "/>
<text transform="matrix(1 0 0 1 327 218.2661)"><tspan x="0" y="0" font-family="'Helvetica'" font-size="12">gorilla</tspan></text>
<text transform="matrix(1 0 0 1 327 318.2661)"><tspan x="0" y="0" font-family="'Helvetica'" font-size="12">orangutan</tspan></text>
<text transform="matrix(1 0 0 1 327 118.2661)"><tspan x="0" y="0" font-family="'Helvetica'" font-size="12">chimpanzee</tspan></text>
<text transform="matrix(1 0 0 1 327 18.2661)"><tspan x="0" y="0" font-family="'Helvetica'" font-size="12">human</tspan></text>
<text transform="matrix(1 0 0 1 237.4219 210.189)"><tspan x="0" y="0" font-family="'Helvetica'" font-size="10">8.</tspan><tspan x="10.22" y="0" font-family="'Helvetica'" font-size="10">6</tspan></text>
<text transform="matrix(1 0 0 1 156.2686 310.1909)"><tspan x="0" y="0" font-family="'Helvetica'" font-size="10" letter-spacing="1">1</tspan><tspan x="7.071" y="0" font-family="'Helvetica'" font-size="10">8</tspan></text>
<text transform="matrix(1 0 0 1 79.0068 135.189)"><tspan x="0" y="0" font-family="'Helvetica'" font-size="10">9.</tspan><tspan x="10.22" y="0" font-family="'Helvetica'" font-size="10">4</tspan></text>
<text transform="matrix(1 0 0 1 193.2461 60.1895)" font-family="'Helvetica'" font-size="10">3</text>
<text transform="matrix(1 0 0 1 263.8232 110.1924)"><tspan x="0" y="0" font-family="'Helvetica'" font-size="10">5.</tspan><tspan x="10.22" y="0" font-family="'Helvetica'" font-size="10">6</tspan></text>
<text transform="matrix(1 0 0 1 263.8232 10.1904)"><tspan x="0" y="0" font-family="'Helvetica'" font-size="10">5.</tspan><tspan x="10.22" y="0" font-family="'Helvetica'" font-size="10">6</tspan></text>
</svg>
