<?xml version="1.0" encoding="utf-8" ?>
<svg baseProfile="full" height="200" version="1.1" width="200" xmlns="http://www.w3.org/2000/svg" xmlns:ev="http://www.w3.org/2001/xml-events" xmlns:xlink="http://www.w3.org/1999/xlink"><defs /><g id="lines" stroke="black"><line x1="42.8571428571" x2="75.0" y1="168.330173322" y2="20.0" /><line x1="28.5714285714" x2="42.8571428571" y1="180.0" y2="168.330173322" /><line x1="57.1428571429" x2="42.8571428571" y1="180.0" y2="168.330173322" /><line x1="107.142857143" x2="75.0" y1="132.896000967" y2="20.0" /><line x1="85.7142857143" x2="107.142857143" y1="180.0" y2="132.896000967" /><line x1="128.571428571" x2="107.142857143" y1="170.585756269" y2="132.896000967" /><line x1="114.285714286" x2="128.571428571" y1="180.0" y2="170.585756269" /><line x1="142.857142857" x2="128.571428571" y1="180.0" y2="170.585756269" /></g><g font-size="14"><text dx="-20" x="75.0" y="20.0">9</text><text dx="-20" x="42.8571428571" y="168.330173322">6</text><text dx="-4" dy="20" x="28.5714285714" y="180.0">0</text><text dx="-4" dy="20" x="57.1428571429" y="180.0">2</text><text dx="-20" x="107.142857143" y="132.896000967">8</text><text dx="-4" dy="20" x="85.7142857143" y="180.0">3</text><text dx="-20" x="128.571428571" y="170.585756269">5</text><text dx="-4" dy="20" x="114.285714286" y="180.0">1</text><text dx="-4" dy="20" x="142.857142857" y="180.0">4</text></g><circle cx="75.0" cy="20.0" r="3" /><circle cx="42.8571428571" cy="168.330173322" r="3" /><circle cx="28.5714285714" cy="180.0" r="3" /><circle cx="57.1428571429" cy="180.0" r="3" /><circle cx="107.142857143" cy="132.896000967" r="3" /><circle cx="85.7142857143" cy="180.0" r="3" /><circle cx="128.571428571" cy="170.585756269" r="3" /><circle cx="114.285714286" cy="180.0" r="3" /><circle cx="142.857142857" cy="180.0" r="3" /></svg>