<?xml version="1.0" encoding="utf-8" ?>
<svg baseProfile="full" height="200" version="1.1" width="200" xmlns="http://www.w3.org/2000/svg" xmlns:ev="http://www.w3.org/2001/xml-events" xmlns:xlink="http://www.w3.org/1999/xlink"><defs /><g id="lines" stroke="black"><line x1="50.0" x2="89.2857142857" y1="89.7777368411" y2="20.0" /><line x1="28.5714285714" x2="50.0" y1="180.0" y2="89.7777368411" /><line x1="71.4285714286" x2="50.0" y1="170.328363829" y2="89.7777368411" /><line x1="57.1428571429" x2="71.4285714286" y1="180.0" y2="170.328363829" /><line x1="85.7142857143" x2="71.4285714286" y1="180.0" y2="170.328363829" /><line x1="128.571428571" x2="89.2857142857" y1="68.2687504475" y2="20.0" /><line x1="114.285714286" x2="128.571428571" y1="180.0" y2="68.2687504475" /><line x1="142.857142857" x2="128.571428571" y1="180.0" y2="68.2687504475" /></g><g font-size="14"><text dx="-20" x="89.2857142857" y="20.0">8</text><text dx="5" x="89.2857142857" y="20.0">t = 1785.36</text><text dx="-20" x="50.0" y="89.7777368411">6</text><text dx="5" x="50.0" y="89.7777368411">t = 1006.75</text><text dx="-4" dy="20" x="28.5714285714" y="180.0">4</text><text dx="-20" x="71.4285714286" y="170.328363829">5</text><text dx="5" x="71.4285714286" y="170.328363829">t = 107.92</text><text dx="-4" dy="20" x="57.1428571429" y="180.0">0</text><text dx="-4" dy="20" x="85.7142857143" y="180.0">2</text><text dx="-20" x="128.571428571" y="68.2687504475">7</text><text dx="5" x="128.571428571" y="68.2687504475">t = 1246.76</text><text dx="-4" dy="20" x="114.285714286" y="180.0">1</text><text dx="-4" dy="20" x="142.857142857" y="180.0">3</text></g><circle cx="89.2857142857" cy="20.0" r="3" /><circle cx="50.0" cy="89.7777368411" r="3" /><circle cx="28.5714285714" cy="180.0" r="3" /><circle cx="71.4285714286" cy="170.328363829" r="3" /><circle cx="57.1428571429" cy="180.0" r="3" /><circle cx="85.7142857143" cy="180.0" r="3" /><circle cx="128.571428571" cy="68.2687504475" r="3" /><circle cx="114.285714286" cy="180.0" r="3" /><circle cx="142.857142857" cy="180.0" r="3" /></svg>