<?xml version="1.0" encoding="utf-8" ?>
<svg baseProfile="full" height="200" version="1.1" width="200" xmlns="http://www.w3.org/2000/svg" xmlns:ev="http://www.w3.org/2001/xml-events" xmlns:xlink="http://www.w3.org/1999/xlink"><defs /><g id="lines" stroke="black"><line x1="66.6666666667" x2="83.3333333333" y1="180.0" y2="170.328363829" /><line x1="133.333333333" x2="150.0" y1="180.0" y2="68.2687504475" /><line x1="100.0" x2="83.3333333333" y1="180.0" y2="170.328363829" /><line x1="166.666666667" x2="150.0" y1="180.0" y2="68.2687504475" /><line x1="33.3333333333" x2="58.3333333333" y1="180.0" y2="89.7777368411" /><line x1="83.3333333333" x2="58.3333333333" y1="170.328363829" y2="89.7777368411" /><line x1="58.3333333333" x2="104.166666667" y1="89.7777368411" y2="20.0" /><line x1="150.0" x2="104.166666667" y1="68.2687504475" y2="20.0" /></g><g font-size="14"><text dx="-4" dy="20" x="66.6666666667" y="180.0">1</text><text dx="-4" dy="20" x="133.333333333" y="180.0">2</text><text dx="-4" dy="20" x="100.0" y="180.0">3</text><text dx="-4" dy="20" x="166.666666667" y="180.0">4</text><text dx="-4" dy="20" x="33.3333333333" y="180.0">5</text><text dx="-20" x="83.3333333333" y="170.328363829">6</text><text dx="-20" x="58.3333333333" y="89.7777368411">7</text><text dx="-20" x="150.0" y="68.2687504475">8</text><text dy="-5" x="104.166666667" y="20.0">9</text></g><circle cx="66.6666666667" cy="180.0" r="3" /><circle cx="133.333333333" cy="180.0" r="3" /><circle cx="100.0" cy="180.0" r="3" /><circle cx="166.666666667" cy="180.0" r="3" /><circle cx="33.3333333333" cy="180.0" r="3" /><circle cx="83.3333333333" cy="170.328363829" r="3" /><circle cx="58.3333333333" cy="89.7777368411" r="3" /><circle cx="150.0" cy="68.2687504475" r="3" /><circle cx="104.166666667" cy="20.0" r="3" /></svg>